<svg xmlns="http://www.w3.org/2000/svg" viewBox="0 0 703.537 464.379"><path fill="#D29742" d="M75.085 187.146c-17.609-10.385-5.293-35.45 18.184-55.456c21.396-18.233 47.3 3 47.7 14 c0.47 11 0.7 8.226-3.996 5.171c-4.702-3.055-3.526 1.88-7.052 6.581c-3.525 4.7 1.4 8.9 0.5 16 c-0.939 7.1 0.7 8.9 1.9 14.573c1.175 5.6 4.5 7.5 6.3 17.864s3.291 3.8 8.9 13.9 c1.41 2.5 0.9 5.803-0.779 9.295c-4.892 10.478-28.533-22.863-28.533-22.863C109.269 199.2 93.8 198.2 75.1 187.146z M628.452 187.146c17.609-10.385 5.293-35.45-18.184-55.456c-21.396-18.233-47.26 2.98-47.73 14 c-0.47 11.048-0.706 8.2 4 5.171c4.702-3.055 3.5 1.9 7.1 6.581c3.525 4.701-1.411 8.932-0.47 16 c0.939 7.051-0.705 8.932-1.88 14.573c-1.175 5.641-4.467 7.521-6.347 17.864s-3.291 3.76-8.932 13.9 c-1.41 2.527-0.852 5.8 0.8 9.295c4.892 10.5 28.533-22.863 28.533-22.863C594.269 199.2 609.8 198.2 628.5 187.146z"/><rect x="-148.2" y="-267.8" display="none" fill="#463962" width="1000" height="1000"/><path fill="#FFC969" d="M226.322 132.556c-6.816 6.582-5.171 14.103-15.514 17.864c-10.342 3.761-20.684 5.171-35.962-1.175 c-15.278-6.346-28.068-15.455-32.202-0.471c-1.88 6.817-5.406-9.402-22.799-15.043c-16.377-5.311-25.621 6.346-31.497 12 c-5.876 5.642-16.923 16.688-14.337 33.612c0.422 2.76-1.095 6.464-3.585 10.206c9.958 3.4 22.5 7.5 26.4 9.8 c6.346 3.8 44.3 29 55 56.833c3.668 9.6 14.3 18.9 16.7 25.667c1.312 3.8 9.6 11.9 7.1 20 c-2.014 6.414-4.61 12.215-6.792 14.293c-4.936 4.7-19.744 3.527-29.851 3.057c-8.637-0.403-11.781-5.781-21.019-14.083 c-1.573-1.414 1.553-14.17-0.43-15.744c-13.633-10.813-6.773-7.347-24.167-20.979c-17.394-13.631-12.778-10.833-15.833-18.354 c-3.057-7.521-17.764-11.227-20.114-14.988c0 0-10.343 0.94-14.809 0.704c-4.465-0.235-4.701 2.586-7.756 4.2 c-3.057 1.646-3.525 4.702-7.758 8.462c-4.23 3.761-6.58 17.393-6.58 25.855c0 0-9.637-3.524-14.809-21.389 c-5.172-17.864-9.166-27.031-0.705-45.13c4.189-8.961 11.49-15.214 18.48-19.643c3.817-2.419 11.354-4.486 18.577-5.213 c-0.252-0.79-0.535-1.522-0.86-2.172c-7.285-14.574-11.047-19.04-9.402-29.146c1.646-10.107 1.646-42.309 1.176-48.656 c-0.471-6.346 0.705-7.756 3.057-9.402c2.35-1.645 17.393-37.374 18.098-49.361s17.863-15.278 23.976-16.218 c6.111-0.94 15.513-23.505 26.796-25.621c11.282-2.115 18 0.8 27.2 3.353c9.167 2.6 80 54 85.5 89 C220.095 111.1 233.1 126 226.3 132.556z M477.215 132.556c6.816 6.6 5.2 14.1 15.5 17.9 c10.342 3.8 20.7 5.2 35.962-1.175c15.278-6.346 28.068-15.455 32.202-0.471c1.88 6.8 5.406-9.402 22.799-15.043 c16.377-5.311 25.6 6.3 31.5 11.987c5.876 5.6 16.9 16.7 14.3 33.612c-0.422 2.8 1.1 6.5 3.6 10.2 c-9.957 3.377-22.49 7.531-26.355 9.821c-6.346 3.76-44.321 29-54.987 56.833c-3.668 9.571-14.317 18.85-16.667 25.7 c-1.312 3.802-9.633 11.886-7.092 19.978c2.014 6.4 4.6 12.2 6.8 14.293c4.936 4.7 19.7 3.5 29.9 3.1 c8.637-0.403 11.781-5.781 21.019-14.083c1.573-1.414-1.553-14.17 0.43-15.744c13.633-10.813 6.773-7.347 24.167-20.979 c17.394-13.631 12.778-10.833 15.833-18.354c3.057-7.521 17.764-11.227 20.114-14.988c0 0 10.3 0.9 14.8 0.7 c4.465-0.235 4.7 2.6 7.8 4.231c3.057 1.6 3.5 4.7 7.8 8.462c4.23 3.8 6.6 17.4 6.6 25.9 c0 0 9.637-3.524 14.809-21.389c5.172-17.864 9.166-27.031 0.705-45.13c-4.189-8.961-11.49-15.214-18.48-19.643 c-3.817-2.419-11.354-4.486-18.577-5.213c0.253-0.79 0.535-1.522 0.86-2.172c7.285-14.574 11.047-19.04 9.402-29.146 c-1.646-10.107-1.646-42.309-1.176-48.656c0.471-6.346-0.705-7.756-3.057-9.402c-2.35-1.645-17.393-37.374-18.098-49.361 s-17.863-15.278-23.976-16.218c-6.111-0.94-15.513-23.505-26.796-25.621c-11.282-2.115-18.049 0.767-27.217 3.4 c-9.167 2.585-80 54-85.5 89C483.442 111.1 470.4 126 477.2 132.556z"/><path fill-rule="evenodd" clip-rule="evenodd" fill="#CCCCCC" d="M357.469 115.319c0.004-2.485-0.03-4.302 0.028-6.114 c0.032-0.98 0.258-1.953 0.331-2.934c0.038-0.508-0.105-1.027-0.098-1.54c0.008-0.54 0.088-1.08 0.157-1.616 c0.191-1.492 0.416-2.979 0.579-4.475c0.065-0.592-0.035-1.201 0.015-1.796c0.038-0.463-0.163-0.594-0.674-0.594 c-1.522 0-3.056 0.006-4.406 0.715c-0.257 0.134-0.465 0.518-0.472 0.789c-0.04 1.7 0 3.447-0.027 5.2 c-0.021 0.805-0.275 1.608-0.288 2.413c-0.021 1.4 0.1 2.9 0.1 4.315c-0.09 1.847-0.311 3.695-0.532 5.5 c-0.096 0.796-1.734 1.306-2.571 0.992c-1.343-0.504-1.516-2.334-1.27-3.548c0.106-0.525 0.289-1.056 0.281-1.572 c-0.021-1.606-0.173-3.206-0.163-4.814c0.006-0.96 0.219-1.93 0.344-2.895c0.009-0.071 0.09-0.144 0.08-0.208 c-0.308-1.975 0.486-4.01-0.058-6.016c-0.333-1.229-0.194-2.57-0.282-3.86c-0.061-0.895-0.23-1.786-0.204-2.682 c0.057-2.026 0.229-4.055 0.303-6.08c0.016-0.42-0.24-0.835-0.272-1.261c-0.143-1.881-0.221-3.77-0.391-5.651 c-0.066-0.731-0.339-1.446-0.473-2.176c-0.087-0.472-0.178-0.966-0.116-1.436c0.107-0.804 1.721-1.537 2.622-1.251 c1.781 0.6 2.5 1.8 2.5 3.473c-0.101 1.6 0.1 3.3 0.1 4.959c0.09 2 0.3 4 0.3 6 c0.014 1.025-0.242 2.055-0.316 3.085c-0.045 0.62-0.01 1.2 0.1 1.862c0.018 0.1 0.5 0.4 0.6 0.3 c1.192-0.507 2.373-0.537 3.691-0.332c1.287 0.2 2.216-0.886 1.857-2.178c-1.041-3.752-0.636-7.465-0.144-11.208 c0.134-1.026-0.048-2.09-0.162-3.131c-0.115-1.056 0.981-2.342 2.131-2.574c0.47-0.095 1.3 0.2 1.6 0.6 c0.427 0.6 0.7 1.4 0.7 2.174c-0.048 1.733-0.419 3.457-0.462 5.188c-0.062 2.505-0.005 5 0.1 7.5 c0.076 1.6 0.5 3.2 0.5 4.865c0.058 2.1 0.3 4.176-0.231 6.122c-0.588 2.355-0.44 4.729-0.607 7.1 c-0.125 1.775-0.327 3.541-0.446 5.314c-0.051 0.8 0.1 1.5 0 2.287c-0.046 0.827-0.11 1.663-0.31 2.5 c-0.152 0.604-0.96 0.856-1.689 0.63C358.355 116.9 357.4 116.3 357.5 115.319z M376.292 118.5 c0.444-0.443 0.3-0.982-0.121-1.614c-0.96-1.441-2.174-2.366-3.856-2.547c-0.583-0.063-1.06-0.388-1.192-0.938 c-0.198-0.822-0.415-1.657-0.442-2.462c-0.059-1.784 0.09-3.549-0.021-5.334c-0.153-2.477 0.15-4.862 0.344-7.284 c0.06-0.747 0.397-1.01 1.188-1.045c1.072-0.048 2.156-0.089 3.175-0.283c1.084-0.206 1.763-1.247 1.566-2.268 c-0.179-0.934-1.049-1.236-1.884-1.469c-0.731-0.204-1.475-0.387-2.22-0.491c-1.19-0.167-1.537-0.555-1.314-1.577 c0.154-0.712 0.318-1.428 0.39-2.156c0.165-1.675 0.215-3.369 0.425-5.042c0.245-1.944 0.588-3.88 0.95-5.821 c0.052-0.278 0.375-0.606 0.672-0.737c0.886-0.39 1.821-0.496 2.859-0.432c1.98 0.1 2.869-1.306 2.27-3.012 c-0.201-0.57-1.931-1.267-2.816-1.178c-1.519 0.152-3.042 0.295-4.549 0.51c-2.3 0.328-3.354 1.438-3.151 3.2 c0.255 2.2 0.1 4.408-0.126 6.595c-0.117 1.017-0.266 2.027-0.374 3.042c-0.083 0.774-0.044 1.57-0.198 2.3 c-0.216 1.063-0.607 2.087-0.837 3.145c-0.189 0.871-0.357 1.764-0.34 2.655c0.014 0.7 0.5 1.5 0.4 2.2 c-0.099 1.696-0.407 3.364-0.588 5.047c-0.071 0.665-0.017 1.351-0.042 2.023c-0.017 0.455-0.051 0.91-0.117 1.4 c-0.187 1.268-0.82 2.5 0.1 3.849c0.097 0.1 0.1 0.3 0.1 0.513c-0.168 1.856-0.134 3.7 0.1 5.6 c0.239 2.1 1 2.7 2.8 3.456c0.888 0.4 1.8 0.5 2.8 0.723c0.524 0.1 1 0 1.6 0 C374.98 119.6 375.5 119.2 376.3 118.462z M337.623 120c0.809-0.131 1.813-0.984 1.856-1.709 c0.163-2.769 0.391-5.541 0.365-8.272c-0.019-1.941-0.331-3.833-0.323-5.802c0.008-1.853-0.104-3.684 0.159-5.561 c0.251-1.786-0.353-3.503 0.375-5.361c0.509-1.299 0.373-2.752 0.46-4.134c0.037-0.579-0.172-1.156-0.133-1.735 c0.075-1.101 0.466-2.233 0.323-3.292c-0.166-1.218-0.305-2.417-0.263-3.654c0.031-0.902-0.188-1.803-0.225-2.708 c-0.01-0.237 0.269-0.707 0.364-0.699c1.22 0.1 2.239-0.355 3.325-0.731c1.568-0.542 2.18-2.043 0.976-3.028 c-0.463-0.378-1.322-0.431-2.021-0.558c-0.679-0.124-1.392-0.108-2.071-0.229c-0.848-0.149-1.659-0.299-2.462 0.2 c-0.168 0.095-0.484 0.014-0.725-0.024c-0.361-0.056-0.744-0.262-1.07-0.204c-1.508 0.268-3.043 0.499-4.478 1 c-1.056 0.35-1.311 1.351-1.323 2.334c-0.01 0.8 0.8 1.7 1.7 1.63c0.87-0.03 1.749-0.094 2.606-0.24 c0.693-0.118 1.1 0.1 1.1 0.655c0.076 0.8 0 1.6 0.2 2.318c0.473 2.968-0.325 6 0.2 9 c0.017 0.094-0.028 0.2-0.044 0.301c-0.156 0.991-0.326 1.985-0.458 2.981c-0.046 0.3 0 0.7 0 1.1 c-0.17 2.331-0.369 4.668-0.517 7.01c-0.06 0.951-0.036 1.896-0.02 2.839c0.025 1.4 0.1 2.9 0.1 4.3 c0.083 1.7 0.3 3.3 0.3 4.995c0.002 1.959-0.162 3.954-0.253 5.937C335.615 119.5 336.5 120.2 337.6 120z M352.234 176.135c0.089 0.5 0.2 1 0.3 1.447c0.382 2.2 0.7 4.5 1.1 6.738c0.26 1.4 0.7 2.8 0.9 4.2 c0.354 2.1 0.1 4.4 1 6.147c0.911 1.8 1.1 3.6 1.2 5.383c0.26 3.4 0.3 6.7 0.5 10.1 c0.321 4.4 0.8 8.8 1.2 13.142c0.079 0.8 0.3 1.7 0.4 2.499c0.178 1.2 0.3 2.5 0.5 3.7 c0.167 1.2 0.3 2.5 0.5 3.69c0.663 3.2 1.4 6.5 2.1 9.713c0.177 0.8 0.5 1.6 0.6 2.4 c0.658 4.3 1.1 8.7 2 13.001c0.676 3.5 1.7 6.9 2.7 10.343c1.073 3.6 1.9 9.6 4.1 12.7 c0.206 0.3 0.3 0.7 0.4 1.027c1.127 3.3 2.2 6.7 3.4 9.977c0.503 1.5 1 2.7 2.9 3.2 c2.052 0.6 3.5 0.8 5.022-1.239c1.287-1.753 2.625-3.267 1.712-5.639c-0.292-0.761-0.303-1.667-0.307-2.509 c-0.013-3.434-0.009-9.149-0.017-12.583c-0.004-1.487-0.237-2.979-0.145-4.458c0.312-4.981 0.904-9.957 1.049-14.939 c0.126-4.34-0.192-8.687-0.359-13.028c-0.041-1.05-0.234-2.094-0.387-3.135c-0.128-0.887-0.406-1.762-0.435-2.651 c-0.115-3.49-0.162-6.983-0.225-10.476c-0.038-2.164-0.283-4.35-0.03-6.485c0.381-3.22 1.292-6.389 1.663-9.608 c0.477-4.124 0.646-8.276 0.935-12.417c0.04-0.564-0.038-1.136 0.009-1.698c0.227-2.692 0.659-5.383 0.68-8.071 c0.033-4.062-0.234-8.121-0.339-12.183c-0.077-2.966 0.292-6.001-0.224-8.885c-0.866-4.842-0.115-6.839-0.189-11.734 c-0.042-2.693-2.612-4.282-5.146-3.153c-1.184 0.527-2.228 3.576-1.997 4.997c0.491 3.021-0.282 3.2 0.1 6.3 c0.251 2.2 0.4 4.4 0.6 6.625c0.091 0.9 0.4 1.8 0.3 2.662c-0.181 4.456-1.108 9.01-0.467 13.3 c0.575 3.877-0.274 7.546-0.289 11.3c-0.019 4.72-0.519 9.493-1.351 14.158c-1.334 7.475-1.873 14.949-1.503 22.5 c0.203 4.1 0.5 8.2 0.8 12.362c0.04 0.77-0.324 1.562-0.297 2.333c0.086 2.5 0.3 4.9 0.4 7.4 c0.034 1.583-0.224 3.175-0.241 4.762c-0.038 3.3 0 6.638-0.015 9.957c-0.004 0.469-0.235 0.939-0.423 1.6 c-0.771-1.379-1.61-2.396-1.949-3.562c-1.252-4.321-2.533-8.653-3.455-13.058c-0.74-3.535-0.887-7.194-1.446-10.775 c-0.453-2.896-1.158-5.752-1.688-8.637c-0.203-1.107-0.132-2.266-0.347-3.369c-0.261-1.336-0.824-2.619-1.029-3.961 c-0.696-4.576-1.388-9.158-1.915-13.759c-0.509-4.447-0.859-8.915-1.185-13.381c-0.199-2.736 0.145-5.533-1.154-8.117 c-0.404-0.803-0.985-1.589-1.124-2.438c-0.441-2.696-0.629-5.432-1.077-8.128c-0.544-3.274-1.01-6.59-1.952-9.769 c-1.571-5.307-4.223-14.016-4.667-19.662c-0.062-0.787-0.916-1.946-1.668-2.183c-3.725-1.167-6.774-0.442-7.408 3.9 c-0.142 0.971-0.043 2 0 2.971c0.125 1.6 0.5 3.3 0.5 4.875c-0.214 4.561-1.67 12.738-1.226 17.4 c0.348 3.65-0.086 7.371-0.238 11.059c-0.122 2.947-0.477 5.89-0.477 8.836c0.001 2.3 0.5 4.5 0.6 6.8 c0.044 3.12-0.221 6.242-0.25 9.364c-0.042 4.512-0.018 9 0 13.538c0.026 2.5 0.2 4.9 0.2 7.4 c-0.012 5.095-0.078 10.189-0.192 15.283c-0.038 1.682-0.223 3.368-0.478 5.031c-0.253 1.66-0.908 3.283-0.972 4.9 c-0.092 2.4 0.2 4.8 0.3 7.254c0.075 1.4 0.5 0.9 0.1 2.087c-0.664 2.44-0.36 4.818-0.172 7.2 c0.027 0.4 0.1 0.8 0.3 1.056c1.124 2 1.2 4.1 1.1 6.257c-0.134 3.086-0.498 3.9 0.6 6.9 c0.567 1.6 2 1.8 3.3 1.979c0.575 0.1 1.329-0.583 1.863-1.065c1.018-0.917 1.216-2.15 1.138-3.503 c-0.162-2.776-0.257-3.235-0.379-6.014c-0.049-1.11-0.109-2.221-0.209-3.327c-0.217-2.406-0.565-4.805-0.672-7.216 c-0.119-2.699 0.278-3.491-0.033-6.161c-0.488-4.195 0.266-8.243 0.704-12.361c0.441-4.151 0.477-8.354 0.56-12.535 c0.055-2.772-0.207-5.55-0.171-8.323c0.042-3.216 0.312-6.429 0.378-9.646c0.047-2.31-0.104-4.621-0.122-6.933 c-0.026-3.455 0.068-6.912-0.043-10.362c-0.097-3.012-0.679-6.026-0.566-9.022c0.219-5.844 0.798-11.675 1.189-17.514 c0.094-1.406 0.014-2.822 0.014-4.233C351.797 176.1 352 176.1 352.2 176.135z M229.669 340.9 c-0.523-1.5-1.291-2.963-1.582-4.491c-0.555-2.926-1.774-5.687-3.546-7.885c-2.97-3.687-6.189-7.276-10.337-9.753 c-1.856-1.107-3.58-2.621-5.542-3.351c-2.586-0.96-5.273-1.829-8.073-0.898c-1.642 0.546-3.93 2.408-3.897 4.2 c0.043 2.4 0.2 4.8 0.4 7.221c0.26 2.8 0.6 5.6 1 8.326c0.093 0.7 0.4 1.3 0.6 2 c0.291 0.9 0.8 1.8 0.8 2.742c0.173 2.7 0.1 5.3 1.4 7.852c0.627 1.2 1.4 2.4 1.7 3.7 c0.397 1.7 0.5 3.4 0.6 5.127c0.101 2.4 0 4.8 0.1 7.271c0.044 1 0.5 2.1 0.5 3.1 c0.076 1.9 0.1 3.752-0.058 5.602c-0.093 1.2 0.2 2.4 0.4 3.611c0.226 1.4 0.2 2.7 0.4 4.1 c0.211 1.4 0.7 2.9 0.8 4.316c0.103 2.535-0.223 5.061-0.02 7.59c0.156 1.9 0.9 3.9 1.3 5.8 c0.231 1.2 0.3 2.3 0.4 3.506c0.393 3.1 0.8 6.1 1.2 9.18c0.49 4 0.8 7.9 1.5 11.9 c0.432 2.7 1.4 5.4 1.8 8.121c0.386 2.7 0.3 5.4 0.5 8.041c0.066 1.3 0.1 2.5 0.2 3.8 c0.151 2.2 0.3 4.4 0.5 6.605c0.189 2.5 0.4 4.9 0.6 7.402c0.014 0.191-0.116 0.375-0.132 0.6 c-0.054 0.658-0.285 1.385-0.09 1.973c0.642 1.9 3.8 4 5.5 3.504c0.945-0.264 1.794-0.855 2.685-1.301 c1.552-0.779 3.205-1.164 4.955-1.273c1.155-0.072 2.456-0.055 3.384-0.631c1.331-0.826 2.391-2.148 3.555-3.277 c0.564-0.547 0.997-1.404 1.662-1.656c3.183-1.213 4.326-4.625 6.083-7.201c1.348-1.977 2.502-4.449 2.847-7.23 c0.358-2.889 1.253-5.664 1.587-8.557c0.219-1.9-0.03-3.93-0.28-5.883c-0.438-3.422-0.867-6.863-1.622-10.234 c-0.921-4.113-2.099-8.184-3.332-12.227c-0.606-1.984-1.487-3.91-2.396-5.787c-0.769-1.588-1.788-3.049-2.644-4.598 c-0.819-1.482-1.401-3.139-2.386-4.486c-2.659-3.639-6.338-6.109-9.653-9.02c-0.04-0.033-0.085-0.061-0.13-0.086 c-1.759-1.029-2.127-2.436-0.675-3.711c3.269-2.869 4.451-7.16 6.317-10.949c1.139-2.311 1.408-5.156 1.97-7.793 c0.402-1.891 0.809-3.812 0.89-5.758c0.068-1.623-0.339-3.303-0.606-5.537C230.598 343.7 230.2 342.3 229.7 340.887z M220.436 387.612c0.223 0.1 0.5 0.2 0.7 0.387c2.589 2.7 5.5 5.2 7.2 8.689c0.906 1.8 1.8 3.5 2.9 5.2 c1.891 3.1 2.8 6.5 3.5 9.924c0.28 1.4 0.8 2.7 1 4.021c0.442 2 0.9 4 1.2 6.1 c0.449 2.8 0.8 5.6 1.2 8.391c0.049 0.373-0.094 0.766-0.164 1.145c-0.371 1.996-0.548 4.082-1.176 6 c-0.547 1.635-1.603 3.037-2.433 4.537c-0.112 0.203-0.339 0.393-0.338 0.602c0.007 2.52-2.131 3.041-3.313 4.4 c-0.442 0.525-0.859 1.078-1.307 1.598c-1.92 2.234-4.454 3.17-7.212 3.529c-0.289 0.037-0.984-0.775-1.064-1.244 c-0.344-1.992-0.534-4.004-0.766-6.01c-0.184-1.584-0.383-3.168-0.51-4.754c-0.225-2.803-0.309-5.611-0.625-8.408 c-0.248-2.188-0.76-4.363-1.152-6.545c-0.788-4.389-1.736-8.766-2.329-13.168c-0.658-4.887-0.935-9.799-1.491-14.695 c-0.261-2.297-0.782-4.582-1.191-6.873c-0.158-0.883-0.33-1.766-0.499-2.662C215.202 386.4 217.8 386 220.4 387.612z M211.502 372.622c-0.301-2.695-0.552-5.393-0.809-8.088c-0.152-1.596-0.316-3.191-0.409-4.787c-0.16-2.756-0.064-5.525-0.465-8.26 c-0.308-2.102-1.003-4.25-1.915-6.211c-0.984-2.117-1.15-4.268-1.521-6.439c-0.584-3.42-1.278-6.828-1.877-10.248 c-0.298-1.703-0.479-3.419-0.714-5.129c0.145-0.144 0.288-0.286 0.433-0.43c2.385 1.3 4.9 2.3 7.1 3.9 c2.553 1.9 5.3 3.7 7 6.672c0.666 1.2 1.2 2.5 1.7 3.812c0.952 2.4 1.8 4.9 2.8 7.4 c1.227 2.9 0.8 5.6 0.4 8.439c-0.133 0.977-0.353 1.941-0.398 2.928c-0.143 3.07-1.362 5.635-2.795 8.1 c-1.666 2.904-3.169 5.916-4.872 8.781c-0.555 0.934-1.552 1.555-2.346 2.316c-0.229-0.072-0.459-0.145-0.688-0.217 C211.846 374.3 211.6 373.5 211.5 372.622z M307.87 456.874c0.373-0.489 0.967-0.91 1.086-1.471 c0.331-1.553 0.472-3.16 0.674-4.748c0.071-0.557 0.933-4.227 1.052-4.766c0.333-1.514 0.756-3 1.081-4.514 c0.44-2.045 0.727-4.139 1.255-6.152c0.809-3.09 1.893-6.094 2.632-9.205c0.514-2.162 0.395-2.277 2.538-2.334 c0.834-0.02 1.674-0.057 2.5 0.025c3.487 0.3 7 1.2 10.5 0.584c1.999-0.352 4.1 0.2 6.042-0.855 c1.014-0.543 1.9 0.2 2 1.375c0.261 5.4 0.6 10.7 0.7 16.109c0.079 4.363-0.223 8.729-0.22 13.1 c0 1.441-0.559 3.4 1.2 4.111c1.153 0.5 2.5 0.7 3.7 0.709c1.284 0 2.915-2.6 2.819-4.049 c-0.116-1.766-0.501-3.629-0.142-5.281c0.405-1.859-0.01-3.637 0.134-5.451c0.225-2.84-0.193-5.744-0.345-8.621 c-0.126-2.395-0.318-4.785-0.381-7.18c-0.118-4.512-0.102-9.025-0.254-13.535c-0.179-5.328-0.461-10.652-0.735-15.977 c-0.117-2.271-0.245-4.547-0.504-6.805c-0.388-3.381-0.976-6.738-1.336-10.121c-0.271-2.549-0.192-5.139-0.489-7.682 c-0.378-3.234-0.997-6.438-1.485-9.66c-0.409-2.697-0.772-5.402-1.166-8.104c-0.553-3.803-1.246-7.59-1.646-11.41 c-0.497-4.74-0.743-9.506-1.124-14.259c-0.125-1.568-0.251-3.144-0.505-4.694c-0.31-1.889-0.656-3.784-1.168-5.625 c-0.641-2.303-0.192-5.165-3.073-6.454c-0.598 0.263-1.267 0.636-1.982 0.858c-2.335 0.723-3.652 2.36-4.088 4.8 c-0.376 2.061-0.638 4.145-0.97 6.215c-0.39 2.432-0.893 4.847-1.168 7.292c-0.212 1.89-0.108 3.818-0.229 5.7 c-0.065 1.02-0.087 2.145-0.513 3.016c-1.848 3.775-2.757 7.801-3.31 11.98c-0.247 1.865-0.898 3.666-1.409 5.5 c-0.435 1.549-0.97 3.064-1.388 4.617c-0.515 1.914-0.956 3.854-1.425 5.781c-0.609 2.502-2.211 4.822-1.62 7.5 c0.696 3.2 0.3 6.279-0.305 9.318c-0.699 3.6 0.2 7.34-1.013 10.873c-1.087 3.049-1.884 6.221-2.784 9.3 c-0.224 0.775-0.77 1.816-0.494 2.32c0.786 1.4 0.3 2.762-0.004 3.973c-0.925 3.664-1.607 7.381-1.571 11.2 c0.027 2.969-0.795 5.615-1.625 8.291c-0.4 1.291-1.271 2.406-1.615 3.709c-0.483 1.832-0.658 3.77-0.995 5.7 c-0.57 3.182-2.003 9.455-2.635 12.617c-0.271 1.4 0.2 2.3 1.2 2.834c1.127 0.6 2.3 1 3.3 1.4 C307.073 457.9 307.5 457.4 307.9 456.874z M331.549 344.491c-0.489 3.3 0.5 6.3 1.1 9.4 c0.393 1.9 0.7 3.9 0.9 5.785c0.386 2.5 0.7 5.1 1.1 7.619c0.547 3.4 1.3 6.7 1.7 10.1 c0.3 2.5 0.1 5.1 0.3 7.588c0.193 2.6 0.6 5.2 0.8 7.867c0.115 1.1 0.2 2.2 0.3 3.3 c0.129 1.5 0.3 3 0.4 4.561c0.099 1.5 0.1 2.9 0.2 4.357c0.099 1.6 0.2 3.1 0.4 4.7 c0.327 2.482-0.474 3.451-2.8 3.688c-1.886 0.193-3.726 0.836-5.61 1.031c-3.581 0.375-7.173 0.678-10.769 0.8 c-1.804 0.062-2.269-0.564-2.125-2.527c0.219-2.992 0.424-6.012 0.995-8.934c0.466-2.383 1.568-4.604 2.181-6.961 c0.385-1.484 0.384-3.088 0.555-4.639c0.197-1.795 0.473-3.586 0.571-5.391c0.187-3.432 0.422-6.871 0.358-10.307 c-0.057-3.066 0.913-5.768 1.849-8.539c1.042-3.084 2.065-6.188 2.919-9.34c0.524-1.932 0.594-3.998 1.062-5.951 c0.795-3.318 1.747-6.596 2.64-9.889c0.184 0 0.4 0.1 0.6 0.076C331.326 343.4 331.6 344 331.5 344.491z M445.276 200.163c-0.368-2.902-0.679-5.816-1.19-8.69c-0.374-2.099-0.791-7.418-1.636-9.35c-0.978-2.237-2.383-4.303-3.738-6.363 c-1.201-1.827-2.536-3.578-3.895-5.306c-2.076-2.639-4.013-4.175-6.437-6.51c-2.28-2.196-4.825-4.228-7.978-5.457 c-2.544-0.992-4.439-3.071-7.135-3.903c-1.191-0.368-2.272-1.049-3.473-1.384c-3.144-0.874-6.115 1.036-6.17 4.1 c-0.035 1.9 0.3 3.9 0.7 5.841c0.737 3.518-0.687 6.1 1.6 9.374c0.03 0 0.1 0.1 0.1 0.1 c-0.036 3.21-0.069 6.42-0.111 9.63c-0.031 2.377-0.195 7.9 0 10.298c0.358 4.3 1 8.5 1.5 12.8 c0.039 0.352-0.08 0.731-0.161 1.092c-0.245 1.093-0.713 2.186-0.724 3.273c-0.033 3.1 0.2 6.2 0.2 9.3 c-0.028 3.368-0.179 6.739-0.366 10.106c-0.121 2.157-0.521 4.309-0.588 6.464c-0.101 3.2 0.2 6.507-0.06 9.7 c-0.28 4.2 0.3 8.381-0.432 12.633c-0.706 4.328-0.377 13.819-0.471 18.211c-0.111 5.2 0.8 10.4 0.2 15.7 c-0.246 2.1 1.3 3.7 3.2 3.907c3.361 0.4 5.7 0.2 8.045-2.234c1.871-1.962 4.743-2.457 6.896-4.058 c2.852-2.12 5.915-3.965 7.919-6.679c2.336-3.163 3.986-11.735 5.932-15.182c1.231-2.182 1.685-7.224 1.847-9.832 c0.139-2.234 0.636-4.461 0.946-6.693c0.621-4.465 0.814-8.297 1.519-12.752c0.398-2.519 1.006-5.019 1.607-7.51 c0.653-2.707 1.556-5.375 2.074-8.098c0.434-2.282-0.726-6.47-0.472-8.781c0.367-3.354 0.793-6.705 1.236-10.389 C445.528 202.7 445.4 201.4 445.3 200.163z M412.198 282.436c-0.167-3.044-0.458-11.15-0.518-14.204 c-0.032-1.629-0.165-3.265-0.039-4.887c0.243-3.138 0.515-6.283 1.004-9.397c0.583-3.713 0.428-7.341-0.002-11.027 c-0.274-2.349 0.14-4.798 0.264-7.201c0.013-0.254 0.198-0.503 0.216-0.758c0.208-2.918 0.388-5.837 0.605-8.754 c0.066-0.888 0.314-1.772 0.321-2.654c0.01-1.437-0.215-2.871-0.156-4.304c0.139-3.311 0.569-6.627 0.543-9.928 c-0.025-3.19-0.443-6.37-0.757-9.547c-0.138-1.395-0.425-2.771-0.672-4.151c-0.241-1.344-0.681-2.669-0.744-4.022 c-0.093-2.033 0.02-7.253 0.053-9.296c0.058-3.494 0.225-6.997 0.095-10.48c-0.099-2.656-0.588-4.021-0.959-7.109 c2.806 0.5 5.1 0.8 7 2.121c4.522 3.4 8.3 6.2 11.3 10.792c2.119 3.2 4 6.6 5.5 10.2 c1.066 2.6 1.4 8.6 1.8 11.41c0.384 2.3 0.8 4.7 0.7 6.99c-0.167 3.34-0.816 6.678-1.242 10 c-0.074 0.579-0.179 1.181-0.099 1.742c0.493 3.4 0.5 8.507-0.452 11.776c-0.63 2.214-1.267 4.451-1.581 6.7 c-0.692 4.977-0.696 9.346-1.471 14.31c-0.38 2.438-1.684 4.769-2.077 7.206c-0.626 3.879-2.084 14.781-3.7 18.2 c-0.716 1.505-3.279 1.767-4.261 3.167c-2.35 3.353-6.081 4.905-10.145 6.886C412.468 285.3 412.2 283.3 412.2 282.436z M233.73 231.208c0.874 4 1.8 7.6 2.1 11.574c0.379 2.8 0.4 3.3 1.1 6.406c0.609 2.6 1.3 5.8 2.2 8.2 c1.454 3.8 2.7 7.6 4.2 11.442c1.843 4.9 3.8 9.8 5.6 14.649c0.521 1.4 1 2.8 1.5 4.2 c0.677 1.8 2.2 2.6 3 4.391c0.459 1 3.1 2.2 4 1.855c0.857-0.33 2.149-3.34 1.851-4.333 c-1.031-3.442-2.945-5.924-4.042-9.352c-0.446-1.398-1.17-2.721-1.605-4.122c-0.555-1.787-1.364-3.405-2.4-4.995 c-1.633-2.503-0.953-5.772-2.897-8.229c-0.033-0.041-0.062-0.091-0.074-0.14c-0.303-1.188-0.595-2.38-0.908-3.566 c-0.618-2.341-1.162-4.703-1.907-7.011c-0.618-1.915-0.033-4.122-1.052-5.859c-0.703-1.196-0.952-2.242-0.821-3.508 c0.157-1.511-0.879-2.794-1.003-4.31c-0.468-5.702-2.116-11.226-3.703-16.763c-0.496-1.73-0.784-3.345 0.475-5.151 c1.414-2.028 2.057-4.636 2.798-7.071c0.722-2.372 1.006-4.889 1.726-7.264c0.903-2.98 2.216-5.838 2.021-9.093 c-0.249-4.166 0.886-8.261-0.969-12.52c-2.065-4.74-4.802-8.938-8.917-12.251c-1.635-1.317-3.889-1.9-5.717-3.043 c-2.261-1.413-4.525-1.136-6.801-0.729c-2.101 0.377-3.614 2.571-3.252 4.508c0.321 1.7 0.7 3.4 1 5.1 c0.36 2.1 0.7 4.3 0.9 6.449c0.246 2.7 0.3 5.3 0.5 8.018c0.105 1.5 0.4 2.9 0.5 4.4 c0.208 5.3 0.2 10.6 0.6 15.866c0.287 4 1.1 8 1.6 11.992c0.165 1.519-0.185 3.053-0.163 4.6 c0.052 3.6 0 7.1 0.3 10.687c0.293 3.218-0.03 6.31-0.346 9.453c-0.313 3.116-0.216 6.304-0.194 9.5 c0.036 5.1 0.1 10.2 0.3 15.309c0.085 1.8 0.8 3.6 1.2 5.479c0.775 4.3 1.4 8.7 2.2 13 c0.346 1.9 1.8 3.1 3.2 3.023c1.371-0.042 3.15-1.927 3.073-3.461c-0.111-2.225 0.032-4.396-0.64-6.691 c-0.867-2.959-1.046-6.095-1.404-9.161c-0.274-2.349-0.332-4.71-0.55-7.063c-0.158-1.71-0.564-3.423-0.606-5.124 c-0.097-3.909-0.087-7.815-0.021-11.717c0.042-2.462 0.198-4.919 0.423-7.361c0.117-1.272 1.013-2.65 0.646-3.726 c-0.729-2.131 0.037-4.106-0.304-6.149c-0.083-0.498 0.207-1.036 0.399-1.875C233.312 230.5 233.6 230.8 233.7 231.208z M230.282 205.433c-0.375-2.683-0.881-5.364-1.084-8.05c-0.151-2.016 0.206-4.036 0.115-6.058c-0.068-1.545-0.481-3.095-0.75-4.642 c-0.149-0.862-0.534-1.761-0.432-2.579c0.337-2.714 0.279-5.39-0.515-8.098c-0.216-0.737-0.12-1.542-0.178-2.494 c2.258 0.1 4 1.1 5.5 2.83c0.71 0.8 1.4 1.7 2.2 2.389c2.351 2.2 3.1 4.9 3.2 7.7 c0.01 3.361-0.155 6.75-0.685 10.039c-0.54 3.353-1.624 6.594-2.442 9.89c-0.363 1.463-0.535 2.996-1.053 4.4 c-0.405 1.093-0.87 2.405-2.788 2.323C230.983 210.5 230.6 208 230.3 205.433z M460.792 453.5 c-0.387 0-0.78-0.064-1.159 0.01c-1.395 0.273-2.48 1.06-2.966 2.607c-0.454 1.447-0.674 3 0.3 4.1 c2.158 2.8 5 3.9 8.4 3.823c1.793-0.016 3.5 0.7 5.386-0.053c0.938-0.398 2.008-0.902 2.906-0.767 c1.541 0.2 2.842-0.573 3.992-1.319c2.855-1.852 5.741-3.715 8.08-6.512c1.086-1.301 2.232-2.24 2.938-4.098 c1.874-4.924 4.096-9.695 5.354-14.865c1.166-4.789 1.626-9.508 1.011-14.252c-0.125-0.951 0.058-2.031-0.256-2.871 c-1.25-3.348-0.817-7.051-1.236-10.568c-0.147-1.232 0.096-2.469-0.227-3.789c-0.766-3.125-1.054-6.422-1.529-9.654 c-0.155-1.059-0.114-2.195-0.429-3.182c-1.374-4.295-2.848-8.551-4.322-12.812c-0.263-0.76-0.616-1.48-0.931-2.217 c-1.18-2.762-2.398-5.506-3.551-8.287c-0.774-1.867-1.091-4.105-2.266-5.602c-1.792-2.283-3.117-4.699-3.668-7.625 c-0.544-2.887-1.226-5.761-1.47-8.701c-0.22-2.647 0.11-5.381 0.129-8.072c0.007-0.93-0.465-1.902-0.25-2.76 c0.772-3.076 1.07-6.225 3-9.086c1.709-2.534 3.576-4.535 6.318-5.777c1.348-0.611 2.62-1.491 3.837-2.388 c1.96-1.444 6.097-1.907 7.889-0.808c1.416 0.9 2.8 1.7 4.3 2.5c2.162 1.1 5.047-0.616 5.551-3.231 c0.21-1.092 0.242-2.137-0.712-2.845c-0.701-0.519-1.372-1.075-2.1-1.553c-1.185-0.778-2.305-1.922-3.639-2.164 c-2.303-0.419-4.746-0.306-7.137-0.329c-0.884-0.009-1.872 0.021-2.665 0.399c-2.469 1.173-4.937 2.267-7.278 3.8 c-2.644 1.76-5.031 3.651-7.254 5.937c-3.421 3.519-5.09 7.914-6.518 12.292c-1.028 3.152-1.299 6.631-1.331 9.9 c-0.035 3.5 0.6 7 1 10.432c0.159 1.4 0.9 2.6 0.8 3.975c-0.161 2.9 1.3 5 2.4 7.3 c0.941 2 2 3.9 2.7 5.928c0.911 2.4 1.4 5 2.4 7.334c1.649 3.5 3 7.1 3.9 10.9 c0.872 3.4 2.1 6.7 2.9 10.162c0.624 2.6 1 5.4 1.3 8.107c0.575 5.1 1 10.1 1.5 15.2 c0.319 3 1.2 5.8 0.3 8.953c-0.474 1.635-1.041 3.25-1.415 4.902c-0.358 1.57-0.521 3.178-0.773 4.8 c-0.396 2.504-1.935 4.438-3.107 6.549c-0.562 1.01-0.983 2.191-1.741 2.973c-1.24 1.281-2.61 2.496-4.081 3.4 c-3.296 2.004-6.679 2.875-10.15 1.197c-1.378-0.666-2.852-1.123-4.285-1.676C460.854 453.3 460.8 453.4 460.8 453.487z M257.542 314.283c-1.539 0.751-3.21 3.098-2.976 4.533c0.333 2 0.8 4.1 1.2 6.11c0.429 2.2 1 4.5 1.2 6.7 c0.376 3.7 0.5 7.5 0.8 11.211c0.16 2.4 0.6 4.8 0.4 7.184c-0.333 4.4 0.5 8.7 0.9 13 c0.225 2.9 0.2 5.8 0.3 8.766c0.072 1.8 0.2 3.7 0.3 5.488c0.069 1.3 0.1 2.6 0.2 3.9 c0.081 0.9 0 2 0.4 2.793c1.737 3.3 1.7 7 2.2 10.521c0.408 2.9 0.2 5.8 0.3 8.8 c0.074 3.1 0.1 6.2 0.2 9.361c0.043 1.3 0.2 2.7 0.3 4c0.085 1.7 0.1 3.4 0.2 5 c0.064 2.5 0.1 5.1 0.2 7.641c0.081 1.7 0.4 3.3 0.5 4.969c0.324 3.8 0.6 7.6 0.9 11.4 c0.136 1.6 0.4 3.2 0.5 4.846c0.026 2.369-0.137 4.729-0.199 7.096c-0.002 0.1 0.2 0.2 0.3 0.4 c1.165 1.6 2.5 2.8 4.4 2.725c0.898-0.029 1.779-0.297 2.677-0.35c3.733-0.223 7.478-0.334 11.205-0.625 c2.094-0.162 3.84-1.02 4.753-3.373c0.942-2.43 0.506-3.861-1.796-4.9c-2.697-1.219-5.31-0.777-7.954 0 c-1.384 0.42-2.891 0.418-4.346 0.572c-0.152 0.016-0.408-0.16-0.49-0.32c-0.464-0.895-1.098-1.771-1.287-2.727 c-0.385-1.938-0.572-3.92-0.748-5.889c-0.228-2.564-0.331-5.133-0.548-7.695c-0.3-3.521-0.806-7.039-0.957-10.559 c-0.219-5.15-0.187-10.301-0.281-15.453c-0.044-2.432-0.025-4.867-0.229-7.293c-0.426-5.055-1.012-10.104-1.442-15.158 c-0.037-0.424 0.566-1.201 0.969-1.26c1.054-0.158 2.169-0.109 3.2 0.041c2.082 0.3 3.933-0.127 5.529-1.492 c1.592-1.357 1.692-3.721 0.083-5.166c-0.784-0.705-1.811-1.316-2.792-1.516c-1.623-0.33-3.298-0.316-4.952-0.402 c-1.033-0.055-2.338 0.377-3.016-0.152c-0.589-0.461-0.574-1.967-0.638-3.014c-0.139-2.242-0.136-4.486-0.229-6.73 c-0.074-1.822-0.104-3.654-0.329-5.467c-0.374-3-1.215-6-1.272-8.982c-0.094-4.869 0.171-9.721-0.725-14.585 c-0.344-1.866-0.652-3.738-0.921-5.613c-0.452-3.136-0.74-6.293-1.321-9.407c-0.53-2.84-0.534-3.151 2.344-3.192 c2.461-0.035 4.9 0.3 7.4 0.455c2.221 0.1 4.6 0.3 6.082-1.643c0.733-0.944 1.292-2.24 1.366-3.437 c0.037-0.597-1.13-1.77-1.873-1.92c-3.347-0.678-6.74-1.083-9.835-1.544C264.176 313 260.7 312.8 257.5 314.283z M364.85 456.702c-0.668 1.691-0.012 3.6 1.6 4.118c0.994 0.3 2.1 0.7 3.1 0.536c1.577-0.324 2.9 0.2 4.3 0.7 c4.671 1.6 8.222-1.121 11.771-3.928c0.149-0.117 0.243-0.332 0.343-0.516c1.236-2.271 2.434-4.574 3.731-6.809 c0.839-1.443 1.977-2.703 2.71-4.201c1.508-3.08 2.91-6.232 4.219-9.426c0.545-1.33 0.855-2.82 1.024-4.264 c0.305-2.611 0.497-5.244 0.599-7.869c0.089-2.295 0.261-4.654-0.096-6.877c-0.491-3.057-1.475-6.004-2.205-9.016 c-0.427-1.764-0.756-3.559-1.14-5.34c-0.371-1.717-0.747-3.435-1.133-5.146c-0.297-1.318-0.448-2.715-0.951-3.936 c-1.835-4.455-4.22-8.701-5.606-13.316c-1.033-3.438-2.339-6.678-4.06-9.668c-1.575-2.736-2.465-5.602-3.125-8.662 c-0.424-1.965-0.787-4.051-1.707-5.766c-1.939-3.617-3.722-7.133-3.28-11.553c0.41-4.109 0.178-8.292 0.762-12.367 c0.356-2.492 1.54-4.938 2.693-7.227c0.847-1.682 1.708-3.553 3.626-4.394c1.113-0.487 2.366-0.771 3.324-1.484 c3.362-2.501 5.276-2.614 8.665-0.435c1.053 0.7 1.9 0.5 2.848-0.021c0.944-0.53 1.661-1.267 1.628-2.53 c-0.067-2.585-0.659-3.734-3.784-5.037c-3.885-1.619-7.723-1.195-11.484 1.08c-2.746 1.661-5.524 3.219-8.2 5 c-2.141 1.43-2.983 3.485-3.795 5.466c-1.419 3.463-2.562 7.116-3.21 10.798c-0.411 2.333-0.479 4.784-0.733 7.2 c-0.305 2.9 0.1 5.8 0.3 8.746c0.152 1.8 0.1 3.8 1 5.172c2.477 3.8 3.4 8.2 4.7 12.5 c0.581 1.9 1.2 3.8 1.9 5.674c1.512 3.6 3.2 7.1 4.7 10.689c0.766 1.9 1.1 3.9 1.9 5.8 c1.252 3 2.8 5.9 4 9.029c0.995 2.7 1.7 5.5 2.4 8.27c0.738 3 1.5 6 2 9 c0.553 3.2 1.1 6.5 0.4 9.844c-0.109 0.52-0.276 1.078-0.201 1.574c0.537 3.527-0.614 6.807-1.952 9.8 c-1.793 4.02-3.981 7.881-6.357 11.516c-1.312 2.008-2.74 4.426-5.319 4.762c-1.677 0.219-3.407 0.121-5.09-0.066 c-1.738-0.195-3.448-0.67-5.375-1.062C365.722 454.4 365.3 455.6 364.9 456.702z M423.681 315.4 c-1.075 0-2.161-0.123-3.222 0.026c-1.775 0.248-3.239 1.182-3.651 3.78c-0.27 1.7 0.5 3 2.4 3.6 c1.252 0.4 2.6 0.5 3.9 0.588c2.263 0.1 4.6 0.4 6.8 0.115c2.901-0.32 3.6 0 3.8 2.9 c0.017 0.3 0.1 0.5 0.1 0.776c0.128 2.2 0.4 4.3 0.3 6.482c-0.062 3.21-0.375 6.425-0.502 9.6 c-0.115 2.914-0.016 5.83-0.204 8.74c-0.28 4.354-0.729 8.699-1.101 13.049c-0.352 4.104-0.743 8.207-1.034 12.3 c-0.255 3.602-0.638 7.225-0.533 10.803c0.146 5 1 9.9 1 14.896c-0.017 4.641-0.773 9.316-1.169 14 c-0.116 1.367-0.122 2.738-0.171 4.105c-0.039 1.041-0.007 2.088-0.114 3.123c-0.383 3.705-0.833 7.404-1.207 11.1 c-0.188 1.861-0.245 3.732-0.41 5.596c-0.22 2.494-0.596 4.986-0.706 7.479c-0.124 2.803-0.051 5.609-0.014 8.4 c0.014 1.084-0.138 2.4 0.3 3.187c0.63 1.1 1.7 2.4 2.7 2.49c1.851 0.1 3.544-0.957 3.735-3.202 c0.198-2.327 0.51-4.654 0.66-6.984c0.135-2.104 0.139-4.211 0.157-6.314c0.013-1.42-0.179-2.844-0.057-4.256 c0.455-5.248 1.06-10.488 1.501-15.736c0.259-3.072 0.212-6.158 0.493-9.229c0.143-1.576 0.991-3.145 1.017-4.697 c0.083-5.018 0.035-10.035-0.162-15.033c-0.216-5.5-0.941-10.938-0.251-16.525c0.794-6.439 1.299-12.902 1.96-19.354 c0.323-3.158 0.821-6.312 1.04-9.473c0.348-5.006 0.548-10.014 0.758-15.02c0.042-0.99-0.225-1.977-0.227-2.969 c-0.005-3.013 0.104-6.036 0.056-9.047c-0.035-2.196-0.114-2.196 2.054-2.581c1.835-0.325 3.725-0.069 5.521-0.921 c0.785-0.372 1.774-0.915 2.468-0.725c2.994 0.8 4.901-0.861 6.708-2.976c1.001-1.173 0.628-2.091-0.34-2.964 c-3.453-3.115-7.77-2.838-12.078-2.542c-2.221 0.152-4.363 0.7-6.355 1.86c-0.221 0.129-0.585-0.057-0.877-0.018 c-1.397 0.188-2.799 0.346-4.183 0.626c-1.04 0.211-2.053 0.807-3.078 0.855c-2.607 0.126-5.218 0.042-7.826 0 C423.676 315.4 423.7 315.4 423.7 315.385z M277.227 284.843c-1.463 0.078-3.034-0.124-4.358 0.3 c-1.509 0.519-2.856 1.547-4.166 2.496c-2.093 1.518-1.999 4.5 0.3 5.964c0.952 0.6 2.3 0.9 3.4 0.8 c2.817-0.086 5.617-0.451 8.43-0.656c0.8-0.06 1.7 0.2 2.4 0.037c2.938-0.714 5.846-1.551 8.771-2.339 c1.419-0.382 2.36-1.414 2.901-2.652c0.497-1.133 0.993-2.64-0.488-3.499c-1.175-0.682-2.559-1.036-3.886-1.382 c-1.017-0.266-1.641-0.643-1.973-1.77c-1.094-3.713-2.655-9.495-3.819-13.193c-0.204-0.649-0.254-1.352-0.305-2.032 c-0.224-2.924-0.357-5.853-0.657-8.771c-0.156-1.514-0.973-3.06-0.827-4.503c0.381-3.786-0.044-7.46-0.903-11.176 c-0.648-2.808-1.263-5.662-1.45-8.508c-0.277-4.246-0.165-8.504-0.212-12.757c-0.014-1.271 0.022-2.542-0.023-3.812 c-0.104-2.938-0.225-5.877-0.379-8.814c-0.12-2.303-0.283-4.605-0.457-6.907c-0.142-1.868-0.407-3.735-0.476-5.604 c-0.103-2.796-0.09-5.594-0.101-8.389c-0.001-0.416 0.153-0.826 0.199-1.243c0.093-0.826 0.285-1.662 0.217-2.484 c-0.213-2.579-0.506-5.155-0.813-7.729c-0.29-2.424-0.6-4.848-0.978-7.264c-0.228-1.457 0.217-1.971 1.766-2.225 c2.473-0.405 5.097-0.553 6.782-2.694c2.306-2.932 2.19-4.948-0.288-5.984c-1.218-0.51-2.843-0.318-4.237-0.158 c-2.331 0.267-4.604 0.909-6.937 1.117c-1.992 0.178-3.905-0.23-5.487 1.629c-1.043 1.228-3.077 1.692-4.682 2.5 c-1.811 0.877-2.692 3.143-1.833 4.772c1.117 2.1 3.4 3.2 5.4 2.352c1.309-0.55 2.175-0.087 2.5 1 c0.458 1.8 0.8 3.6 0.9 5.341c0.153 1.887-0.026 3.8 0.1 5.675c0.162 3.1 0.7 6.2 0.6 9.3 c-0.113 4.067-0.646 8.1 0.2 12.192c1.357 6.7 1.6 13.3 1.3 20.036c-0.125 2.845-0.598 5.689-0.433 8.5 c0.237 4.1 0.9 8.2 1.4 12.233c0.117 0.9 0.9 1.7 0.9 2.522c0.498 5.1 0.8 10.3 1.3 15.4 c0.44 4.3 1.2 8.5 1.6 12.787c0.228 2.4 1.1 7.089-0.035 9.5C277.961 284.8 277.6 284.8 277.2 284.843z M321.257 162.429c2.278-0.164 4.012-1.092 5.474-2.655c0.793-0.849 0.558-3.737-0.377-4.116c-2.912-1.178-5.924-1.103-8.997-0.883 c-2.165 0.154-3.856 1.845-6.407 1.204c-0.442-0.111-1.905-0.613-2.341-0.51c-1.857 0.438-3.633 1.229-3.795 3.3 c-0.192 2.393-0.52 4.9 0.1 7.197c0.71 2.5 1.2 4.8 1.1 7.318c-0.044 0.893-0.332 2 0.1 2.7 c1.538 2.6 1.2 5.6 1.2 8.24c0.099 5.4 0.5 10.7 1.4 15.955c0.564 3.2 1.1 6.3 0.7 9.6 c-0.426 3.236-0.952 6.531-0.722 9.768c0.207 2.9 0.3 5.745-0.042 8.622c-0.159 1.4 0.1 2.9 0 4.4 c-0.216 3.979-0.534 7.95-0.751 11.929c-0.109 2 0 4.019-0.157 6.003c-0.468 4.8-1.246 9.569-1.541 14.4 c-0.215 3.5 0.1 7.1 0.2 10.592c0.035 1.3 0.1 2.5 0.1 3.809c0.165 2.8 0.4 5.7 0.5 8.5 c0.127 2 0.2 4.2 2.3 5.225c1.426 0.7 3.1 1.3 4.6 1.318c3.497 0 6.988-0.339 10.485-0.546 c1.366-0.081 4.528-2.877 4.769-4.243c0.042-0.241-0.035-0.508-0.076-0.76c-0.318-1.956-1.808-2.507-3.417-2.723 c-2.604-0.349-5.235-0.781-7.839-0.722c-1.153 0.026-1.906-0.17-2.298-1.041c-0.439-0.978-0.63-2.098-0.758-3.173 c-0.407-3.42-0.822-6.842-1.072-10.272c-0.241-3.299-0.456-6.619-0.355-9.913c0.103-3.298 0.351-6.634 1.017-9.847 c0.736-3.55 0.728-7.119 0.897-10.694c0.215-4.54 0.293-9.092 0.614-13.624c0.152-2.146 1.148-2.847 3.34-2.862 c2.161-0.015 3.987-0.92 5.218-2.453c0.637-0.793 0.803-2.415 0.427-3.396c-0.412-1.073-1.554-2.31-2.634-2.633 c-1.848-0.553-3.895-0.449-5.879-0.623c-0.048-2.756-0.088-5.532-0.147-8.309c-0.029-1.348 0.032-2.711-0.16-4.042 c-0.728-5.045-1.609-10.073-2.302-15.123c-0.185-1.348 0.309-2.765 0.16-4.121c-0.395-3.59-0.966-7.164-1.482-10.743 c-0.332-2.299 0.358-4.758-1.412-6.765C314.385 165.2 318.2 162.6 321.3 162.429z M505.267 210.1 c-0.309-0.913-0.742-1.799-0.903-2.745c-0.414-2.435-0.7-4.905-1.063-7.354c-0.468-3.155-0.838-6.34-1.488-9.451 c-0.517-2.47-1.603-4.801-2.053-7.281c-0.555-3.066-0.616-6.245-1.084-9.337c-0.25-1.649-1.801-3.011-4.227-2.756 c-1.156 0.122-2.869 1.991-2.846 3.3c0.039 2.2 0.1 4.5 0.4 6.64c0.364 2.5 1.1 4.9 1.6 7.3 c0.77 3.6 1.6 7.1 2.2 10.673c0.549 2.9 0.8 5.9 1.4 8.835c0.621 3.2 1 6.6 2.3 9.5 c1.477 3.3 2.2 6.6 1.8 10.318c-0.197 2.125-0.395 4.261-0.379 6.374c0.013 1.8 0.4 3.5 0.5 5.3 c0.077 2.846-0.015 5.709-0.018 8.563c-0.004 2.7 0.2 5.49-0.017 8.236s-0.832 5.495-1.083 8.2 c-0.29 3.155-0.21 6.32-0.581 9.468c-0.432 3.668-1.242 7.321-1.748 10.988c-0.188 1.4 0.1 2.7 0 4.1 c-0.105 3.019-0.058 3.1 2.6 4.102c1.52 0.6 3.86-0.25 4.46-1.822c0.565-1.481 0.829-3.109 0.951-4.673 c0.124-1.608-0.269-3.222-0.105-4.825c0.343-3.354 0.97-6.703 1.357-10.057c0.328-2.837 0.468-5.682 0.711-8.522 c0.333-3.874 0.746-7.749 1.006-11.621c0.127-1.891 0.018-3.785-0.037-5.669c-0.065-2.24-0.286-4.47-0.255-6.716 c0.031-2.304 0.359-4.625 0.419-6.932c0.044-1.678-0.217-3.34-0.181-5.018c0.02-0.865 0.369-1.754 0.611-2.623 c0.361-1.294 0.803-2.572 1.142-3.869c0.793-3.044 1.479-6.108 2.344-9.138c0.615-2.158 1.515-4.26 2.161-6.414 c0.55-1.844 0.948-3.723 1.36-5.593c0.651-2.935 1.293-5.871 1.873-8.814c0.586-2.972 0.556-6.009 2.062-8.882 c0.409-0.781 0.361-1.855 0.24-2.738c-0.255-1.872-1.197-2.47-3.244-2.315c-1.592 0.12-2.995 1.201-3.595 2.9 c-0.605 1.711-1.133 3.442-1.654 5.174c-0.303 1.006-0.624 2.022-0.767 3.044c-0.325 2.34-0.483 4.691-0.836 7 c-0.205 1.355-0.564 2.718-1.016 4.036c-0.695 2.026-1.603 3.999-2.275 6.03c-0.542 1.641-0.873 3.332-1.296 5 C505.786 210.1 505.5 210.1 505.3 210.147z M464.972 292.504c1.293-0.153 2.586-0.31 3.88-0.46 c1.497-0.174 3.671-2.436 3.909-3.923c0.322-2.015-1.333-3.673-3.303-3.971c-1.74-0.264-3.544-0.265-5.327-0.27 c-2.063-0.005-2.847-0.728-2.763-2.788c0.037-0.906 0.127-1.813 0.155-2.719c0.158-5.112 2.059-10.105 1.847-15.254 c-0.09-2.197 0.332-4.453 0.145-6.629c-0.284-3.303-1.144-6.535-1.299-9.843c-0.12-2.534 0.456-5.141 0.767-7.712 c0.119-0.987 0.474-1.968 0.519-2.948c0.138-3.017 0.146-6.032 0.27-9.049c0.106-2.636 0.506-5.289 0.413-7.903 c-0.147-4.099 0.17-8.131 1.144-12.185c0.301-1.253 0.037-2.604 0.023-3.909c-0.005-0.569-0.059-1.137-0.044-1.706 c0.062-2.44 0.158-4.882 0.206-7.322c0.029-1.405-0.164-2.82 0.018-4.211c0.369-2.826 1.646-5.582 1.135-8.479 c-0.227-1.286-0.435-2.58-0.568-3.883c-0.231-2.259-0.522-4.519-0.555-6.794c-0.031-2.107-0.175 0.035-0.177-2.077 c-0.002-2.255-1.554-3.269-4.354-3.084c-1.574 0.104-2.651 1.362-2.66 3.191c-0.002 0.7 0.2 1.4 0.2 2 c0.153 3.9 0.6 3.5 1 7.279c0.397 3.6 0.2 7.111-0.525 10.696c-0.452 2.34-0.979 4.827-0.622 7.1 c0.629 3.976-0.624 7.909-0.307 11.835c0.007 0.09-0.113 0.189-0.132 0.29c-0.666 3.605-1.969 7.268-1.827 10.8 c0.206 5.1 1.2 10.2 0.7 15.381c-0.124 1.355-0.035 2.723-0.213 4.071c-0.743 5.625-1.243 11.252-1.15 16.9 c0.026 1.57-0.062 3.2 0.4 4.668c1.074 3.1 0.7 6.2 0.3 9.258c-0.543 3.733-1.471 7.428-2.173 11.1 c-0.45 2.382-0.772 4.781-1.197 7.167c-0.701 3.9 2.4 6.9 6.1 5.989C460.885 292.7 465 292.3 465 292.504z M196.036 286.025c0.309 0.9 0.5 1.8 0.9 2.578c0.629 1.3 2.5 2.1 3.6 1.818c1.003-0.283 2.876-2.821 2.769-3.707 c-0.19-1.572-0.344-3.146-0.528-4.72c-0.26-2.23-0.84-4.5-0.736-6.684c0.202-4.281-0.873-8.417-1.719-12.605 c-0.669-3.312-1.282-6.643-1.696-9.975c-0.325-2.616 0.22-5.373-0.561-7.845c-1.134-3.59-0.499-6.969-0.554-10.427 c-0.011-0.658 0.725-1.678 1.339-1.822c2.457-0.573 4.706-2.199 7.55-1.178c0.262 0.1 0.621-0.084 0.925-0.165 c1.541-0.412 2.405-1.417 3.103-2.823c0.996-2.004 0.17-3.973-2.114-4.351c-0.804-0.133-1.633-0.179-2.408-0.424 c-2.407-0.761-4.582-0.516-6.6 0.741c-0.427 0.266-1.286 0.585-1.462 0.413c-0.607-0.598-1.326-1.389-1.416-2.13 c-0.218-1.812 0.018-3.639-0.164-5.454c-0.23-2.302-0.786-4.596-1.036-6.897c-0.36-3.307-0.011-6.6-1.312-9.919 c-0.812-2.072-0.935-4.359-1.303-6.556c-0.209-1.249 0.126-2.733-0.508-3.718c-1.31-2.035-1.184-4.125-1.406-6.207 c-0.097-0.901 0.059-1.923 0.481-2.678c0.222-0.397 1.274-0.309 1.931-0.492c0.959-0.269 1.962-0.48 2.835-0.905 c1.375-0.67 2.567-1.712 4.011-2.202c1.6-0.543 2.85-1.353 3.763-2.646c1.339-1.897 0.726-4.32-1.266-4.444 c-2.003-0.125-4.075 0.179-5.983 0.672c-2.483 0.64-4.764 1.862-7.257 2.438c-2.098 0.483-3.903 1.224-5.392 2.6 c-1.508 1.41-1.472 3.4 0 5.123c0.469 0.5 1.1 1.2 1.1 1.751c0.276 2.7 0.8 5.3 1.5 7.9 c0.798 3.3 1.4 6.7 1.3 10.057c-0.014 0.3 0.3 0.6 0.3 0.882c0.394 1.9 1.1 3.9 1.1 5.8 c0.003 1.893-0.941 3.7 0.4 5.655c0.269 0.4 0.2 1 0.2 1.576c0.187 3.7 0.2 7.5 0.6 11.2 c0.613 7.1 1.4 14.3 2 21.447c0.365 4.172-0.473 8.3 1 12.535c0.808 2.2 0.9 4.7 1.3 7.1 c0.289 1.8 0.6 3.7 0.7 5.537c0.14 1.951-0.009 3.9 0.2 5.853c0.205 2.4 0.6 4.9 0.9 7.3 C196.275 286 196.2 286 196 286.025z"/><path fill="#ECB256" d="M202.347 26.079c-8.462-6.581-20.495-10.542-25.385-11.517c-3.526-0.704-11.282-4.703-18.569-7.523 s-23.975-3.056-33.142-5.641c-9.167-2.586-9.167-1.175-20.449 0.94c-0.545 0.102-1.084 0.266-1.618 0.5 c13.522 3.1 26.6 4.8 37.3 9.885c11.047 5.2 22.8 18.8 26.6 23.505c3.761 4.7 11.3 9.2 15.3 14.6 c8.885 12 7.3 15.5 9.9 19.273c2.585 3.8 8 6.1 9.4 10.107c2.474 7 3.1 17.4 4 18.8 c0.939 1.4 6.1 7.8 8 13.164c1.881 5.4 0.9 6.6 4.5 10.577c1.948 2.2 4.6 7.4 6.6 11.7 c0.488-0.6 1.011-1.196 1.62-1.784c6.817-6.581 10.342-18.099 13.868-34.317s0-21.86-7.521-36.903 C225.147 46.3 210.8 32.7 202.3 26.079z M178.372 280.87c-2.35-6.816 1.41-5.405-4.701-13.633 c-6.111-8.228 0.471-8.462-8.227-19.508c-8.697-11.048-6.111-11.989-10.577-17.629c-4.466-5.641-9.402-10.108-13.632-13.398 c-4.231-3.29-10.812-11.753-15.749-12.458s-12.692-9.167-19.744-10.577s-6.347-2.115-12.692-5.875 c-6.348-3.761-11.283-1.881-12.929-3.292c-8.081-6.925-13.632-4.231-16.923-6.346c-6.805-4.373-17.395-2.115-23.035 1.2 c-4.014 2.341-15.879 6.59-25.439 15.365c3.16-1.996 6.021-3.696 7.574-4.317c4.701-1.881 9.637-1.41 12.693-0.94 c3.057 0.5 8.227-2.585 16.924-1.411s6.347 2.8 19 4.466c12.693 1.6 9.6 8 24.2 12.7 c14.572 4.7 9.4 7.5 25.9 14.574c6.582 2.8 5.6 12.2 14.8 22.329c9.167 10.1 10.6 11.8 16.5 18.8 c5.876 7.1 6.1 15.3 10.6 23.27c4.466 8 10.8 14.1 11.8 19.979c0.016 0.1 0 0.2 0.1 0.3 C177.684 295.8 179.8 285.1 178.4 280.87z M122.43 303.67c-2.351-6.111 2.351-10.813 0.47-15.749 c-1.881-4.937-5.171-6.583-15.983-14.338c-10.812-7.758-9.637-8.697-16.453-15.748c-6.816-7.052-6.582-7.992-13.398-13.163 c-6.816-5.172-7.521-8.227-15.748-9.402c-1.339-0.191-2.648-0.201-3.91-0.105c2.416 3.8 8.9 9.8 11.9 17.3 c3.055 7.521-3.291 6.8 14.1 20.45c17.394 13.6 15.5 16.9 29.1 27.736c3.024 2.4 5.5 4.6 7.6 6.6 C122.136 306.6 123.1 305.4 122.4 303.67z M470.868 61.336c-7.521 15.043-11.047 20.685-7.521 36.9 s7.051 27.7 13.9 34.317c0.608 0.6 1.1 1.2 1.6 1.784c1.995-4.231 4.659-9.45 6.607-11.658 c3.525-3.996 2.585-5.171 4.466-10.577c1.88-5.407 7.052-11.753 7.992-13.164c0.94-1.41 1.521-11.794 3.996-18.804 c1.41-3.996 6.817-6.346 9.402-10.107c2.585-3.76 0.987-7.251 9.872-19.273c3.996-5.407 11.517-9.873 15.278-14.573 c3.761-4.701 15.513-18.333 26.561-23.505c10.79-5.051 23.823-6.743 37.345-9.885c-0.534-0.192-1.073-0.355-1.618-0.458 c-11.282-2.115-11.282-3.526-20.449-0.94c-9.167 2.585-25.854 2.821-33.142 5.641s-15.043 6.819-18.569 7.5 c-4.89 0.976-16.923 4.936-25.385 11.517C492.729 32.7 478.4 46.3 470.9 61.336z M528.865 304.4 c0.021-0.09 0.045-0.176 0.062-0.276c0.94-5.876 7.286-11.986 11.752-19.979c4.466-7.992 4.701-16.219 10.577-23.27 c5.876-7.051 7.287-8.696 16.454-18.804c9.167-10.107 8.227-19.508 14.809-22.329c16.472-7.059 11.282-9.872 25.854-14.574 c14.572-4.701 11.518-11.047 24.211-12.692c12.692-1.645 10.342-3.291 19.039-4.466s13.867 1.9 16.9 1.4 c3.057-0.47 7.992-0.941 12.7 0.94c1.553 0.6 4.4 2.3 7.6 4.317c-9.561-8.774-21.426-13.023-25.439-15.365 c-5.641-3.291-16.23-5.548-23.035-1.175c-3.291 2.115-8.842-0.579-16.923 6.346c-1.646 1.411-6.581-0.469-12.929 3.3 c-6.346 3.76-5.641 4.465-12.692 5.875s-14.808 9.872-19.744 10.577s-11.518 9.168-15.749 12.5 c-4.23 3.29-9.166 7.757-13.632 13.398c-4.466 5.64-1.88 6.582-10.577 17.629c-8.698 11.046-2.116 11.28-8.227 19.5 c-6.111 8.229-2.352 6.817-4.701 13.633C523.712 285.1 525.9 295.8 528.9 304.416z M583.354 307.2 c2.141-2.017 4.6-4.229 7.624-6.627c13.634-10.813 11.753-14.104 29.146-27.736c17.394-13.631 11.048-12.928 14.103-20.45 c3.021-7.438 9.486-13.492 11.902-17.263c-1.262-0.095-2.571-0.086-3.91 0.105c-8.227 1.175-8.932 4.23-15.748 9.4 c-6.816 5.171-6.582 6.111-13.398 13.163c-6.816 7.051-5.641 7.99-16.453 15.748c-10.812 7.755-14.103 9.401-15.983 14.3 c-1.881 4.9 2.8 9.6 0.5 15.749C580.434 305.4 581.4 306.6 583.4 307.242z"/></svg>