<svg xmlns="http://www.w3.org/2000/svg" viewBox="0 0 703.537 464.379"><path fill="#D29742" d="M75.085 187.146c-17.609-10.385-5.293-35.45 18.184-55.456 21.396-18.233 47.3 3 47.7 14 .47 11 .7 8.226-3.996 5.171-4.702-3.055-3.526 1.88-7.052 6.581-3.525 4.7 1.4 8.9.5 16-.939 7.1.7 8.9 1.9 14.573 1.175 5.6 4.5 7.5 6.3 17.864s3.291 3.8 8.9 13.9c1.41 2.5.9 5.803-.779 9.295-4.892 10.478-28.533-22.863-28.533-22.863-8.94-7.011-24.409-8.011-43.109-19.065zm553.367 0c17.609-10.385 5.293-35.45-18.184-55.456-21.396-18.233-47.26 2.98-47.73 14-.47 11.048-.706 8.2 4 5.171 4.702-3.055 3.5 1.9 7.1 6.581 3.525 4.701-1.411 8.932-.47 16 .939 7.051-.705 8.932-1.88 14.573-1.175 5.641-4.467 7.521-6.347 17.864s-3.291 3.76-8.932 13.9c-1.41 2.527-.852 5.8.8 9.295 4.892 10.5 28.533-22.863 28.533-22.863 8.927-7.011 24.458-8.011 43.158-19.065z"/><path fill="#FFC969" d="M226.322 132.556c-6.816 6.582-5.171 14.103-15.514 17.864-10.342 3.761-20.684 5.171-35.962-1.175-15.278-6.346-28.068-15.455-32.202-.471-1.88 6.817-5.406-9.402-22.799-15.043-16.377-5.311-25.621 6.346-31.497 12-5.876 5.642-16.923 16.688-14.337 33.612.422 2.76-1.095 6.464-3.585 10.206 9.958 3.4 22.5 7.5 26.4 9.8 6.346 3.8 44.3 29 55 56.833 3.668 9.6 14.3 18.9 16.7 25.667 1.312 3.8 9.6 11.9 7.1 20-2.014 6.414-4.61 12.215-6.792 14.293-4.936 4.7-19.744 3.527-29.851 3.057-8.637-.403-11.781-5.781-21.019-14.083-1.573-1.414 1.553-14.17-.43-15.744-13.633-10.813-6.773-7.347-24.167-20.979-17.394-13.631-12.778-10.833-15.833-18.354-3.057-7.521-17.764-11.227-20.114-14.988 0 0-10.343.94-14.809.704-4.465-.235-4.701 2.586-7.756 4.2-3.057 1.646-3.525 4.702-7.758 8.462-4.23 3.761-6.58 17.393-6.58 25.855 0 0-9.637-3.524-14.809-21.389-5.172-17.864-9.166-27.031-.705-45.13 4.189-8.961 11.49-15.214 18.48-19.643 3.817-2.419 11.354-4.486 18.577-5.213-.252-.79-.535-1.522-.86-2.172-7.285-14.574-11.047-19.04-9.402-29.146 1.646-10.107 1.646-42.309 1.176-48.656-.471-6.346.705-7.756 3.057-9.402 2.35-1.645 17.393-37.374 18.098-49.361s17.863-15.278 23.976-16.218c6.111-.94 15.513-23.505 26.796-25.621 11.282-2.115 18 .8 27.2 3.353 9.167 2.6 80 54 85.5 89 2.494 16.426 15.499 31.326 8.699 37.882zm250.893 0c6.816 6.6 5.2 14.1 15.5 17.9 10.342 3.8 20.7 5.2 35.962-1.175 15.278-6.346 28.068-15.455 32.202-.471 1.88 6.8 5.406-9.402 22.799-15.043 16.377-5.311 25.6 6.3 31.5 11.987 5.876 5.6 16.9 16.7 14.3 33.612-.422 2.8 1.1 6.5 3.6 10.2-9.957 3.377-22.49 7.531-26.355 9.821-6.346 3.76-44.321 29-54.987 56.833-3.668 9.571-14.317 18.85-16.667 25.7-1.312 3.802-9.633 11.886-7.092 19.978 2.014 6.4 4.6 12.2 6.8 14.293 4.936 4.7 19.7 3.5 29.9 3.1 8.637-.403 11.781-5.781 21.019-14.083 1.573-1.414-1.553-14.17.43-15.744 13.633-10.813 6.773-7.347 24.167-20.979 17.394-13.631 12.778-10.833 15.833-18.354 3.057-7.521 17.764-11.227 20.114-14.988 0 0 10.3.9 14.8.7 4.465-.235 4.7 2.6 7.8 4.231 3.057 1.6 3.5 4.7 7.8 8.462 4.23 3.8 6.6 17.4 6.6 25.9 0 0 9.637-3.524 14.809-21.389 5.172-17.864 9.166-27.031.705-45.13-4.189-8.961-11.49-15.214-18.48-19.643-3.817-2.419-11.354-4.486-18.577-5.213.253-.79.535-1.522.86-2.172 7.285-14.574 11.047-19.04 9.402-29.146-1.646-10.107-1.646-42.309-1.176-48.656.471-6.346-.705-7.756-3.057-9.402-2.35-1.645-17.393-37.374-18.098-49.361s-17.863-15.278-23.976-16.218c-6.111-.94-15.513-23.505-26.796-25.621-11.282-2.115-18.049.767-27.217 3.4-9.167 2.585-80 54-85.5 89-2.697 16.215-15.739 31.115-8.939 37.671z"/><path fill-rule="evenodd" clip-rule="evenodd" fill="#ccc" d="M357.469 115.319c.004-2.485-.03-4.302.028-6.114.032-.98.258-1.953.331-2.934.038-.508-.105-1.027-.098-1.54.008-.54.088-1.08.157-1.616.191-1.492.416-2.979.579-4.475.065-.592-.035-1.201.015-1.796.038-.463-.163-.594-.674-.594-1.522 0-3.056.006-4.406.715-.257.134-.465.518-.472.789-.04 1.7 0 3.447-.027 5.2-.021.805-.275 1.608-.288 2.413-.021 1.4.1 2.9.1 4.315-.09 1.847-.311 3.695-.532 5.5-.096.796-1.734 1.306-2.571.992-1.343-.504-1.516-2.334-1.27-3.548.106-.525.289-1.056.281-1.572-.021-1.606-.173-3.206-.163-4.814.006-.96.219-1.93.344-2.895l.08-.208c-.308-1.975.486-4.01-.058-6.016-.333-1.229-.194-2.57-.282-3.86-.061-.895-.23-1.786-.204-2.682.057-2.026.229-4.055.303-6.08.016-.42-.24-.835-.272-1.261-.143-1.881-.221-3.77-.391-5.651-.066-.731-.339-1.446-.473-2.176-.087-.472-.178-.966-.116-1.436.107-.804 1.721-1.537 2.622-1.251 1.781.6 2.5 1.8 2.5 3.473-.101 1.6.1 3.3.1 4.959.09 2 .3 4 .3 6 .014 1.025-.242 2.055-.316 3.085-.045.62-.01 1.2.1 1.862.018.1.5.4.6.3 1.192-.507 2.373-.537 3.691-.332 1.287.2 2.216-.886 1.857-2.178-1.041-3.752-.636-7.465-.144-11.208.134-1.026-.048-2.09-.162-3.131-.115-1.056.981-2.342 2.131-2.574.47-.095 1.3.2 1.6.6.427.6.7 1.4.7 2.174-.048 1.733-.419 3.457-.462 5.188-.062 2.505-.005 5 .1 7.5.076 1.6.5 3.2.5 4.865.058 2.1.3 4.176-.231 6.122-.588 2.355-.44 4.729-.607 7.1-.125 1.775-.327 3.541-.446 5.314-.051.8.1 1.5 0 2.287-.046.827-.11 1.663-.31 2.5-.152.604-.96.856-1.689.63-1.469-.36-2.424-.96-2.324-1.941zm18.823 3.181c.444-.443.3-.982-.121-1.614-.96-1.441-2.174-2.366-3.856-2.547-.583-.063-1.06-.388-1.192-.938-.198-.822-.415-1.657-.442-2.462-.059-1.784.09-3.549-.021-5.334-.153-2.477.15-4.862.344-7.284.06-.747.397-1.01 1.188-1.045 1.072-.048 2.156-.089 3.175-.283 1.084-.206 1.763-1.247 1.566-2.268-.179-.934-1.049-1.236-1.884-1.469-.731-.204-1.475-.387-2.22-.491-1.19-.167-1.537-.555-1.314-1.577.154-.712.318-1.428.39-2.156.165-1.675.215-3.369.425-5.042.245-1.944.588-3.88.95-5.821.052-.278.375-.606.672-.737.886-.39 1.821-.496 2.859-.432 1.98.1 2.869-1.306 2.27-3.012-.201-.57-1.931-1.267-2.816-1.178-1.519.152-3.042.295-4.549.51-2.3.328-3.354 1.438-3.151 3.2.255 2.2.1 4.408-.126 6.595-.117 1.017-.266 2.027-.374 3.042-.083.774-.044 1.57-.198 2.3-.216 1.063-.607 2.087-.837 3.145-.189.871-.357 1.764-.34 2.655.014.7.5 1.5.4 2.2-.099 1.696-.407 3.364-.588 5.047-.071.665-.017 1.351-.042 2.023-.017.455-.051.91-.117 1.4-.187 1.268-.82 2.5.1 3.849.097.1.1.3.1.513-.168 1.856-.134 3.7.1 5.6.239 2.1 1 2.7 2.8 3.456.888.4 1.8.5 2.8.723.524.1 1 0 1.6 0 1.137.532 1.657.132 2.457-.606zm-38.669 1.5c.809-.131 1.813-.984 1.856-1.709.163-2.769.391-5.541.365-8.272-.019-1.941-.331-3.833-.323-5.802.008-1.853-.104-3.684.159-5.561.251-1.786-.353-3.503.375-5.361.509-1.299.373-2.752.46-4.134l-.133-1.735c.075-1.101.466-2.233.323-3.292-.166-1.218-.305-2.417-.263-3.654.031-.902-.188-1.803-.225-2.708-.01-.237.269-.707.364-.699 1.22.1 2.239-.355 3.325-.731 1.568-.542 2.18-2.043.976-3.028-.463-.378-1.322-.431-2.021-.558l-2.071-.229c-.848-.149-1.659-.299-2.462.2-.168.095-.484.014-.725-.024-.361-.056-.744-.262-1.07-.204-1.508.268-3.043.499-4.478 1-1.056.35-1.311 1.351-1.323 2.334-.01.8.8 1.7 1.7 1.63.87-.03 1.749-.094 2.606-.24.693-.118 1.1.1 1.1.655.076.8 0 1.6.2 2.318.473 2.968-.325 6 .2 9 .017.094-.028.2-.044.301-.156.991-.326 1.985-.458 2.981-.046.3 0 .7 0 1.1-.17 2.331-.369 4.668-.517 7.01-.06.951-.036 1.896-.02 2.839.025 1.4.1 2.9.1 4.3.083 1.7.3 3.3.3 4.995.002 1.959-.162 3.954-.253 5.937-.031.841.854 1.541 1.954 1.341zm14.611 56.135c.089.5.2 1 .3 1.447.382 2.2.7 4.5 1.1 6.738.26 1.4.7 2.8.9 4.2.354 2.1.1 4.4 1 6.147.911 1.8 1.1 3.6 1.2 5.383.26 3.4.3 6.7.5 10.1.321 4.4.8 8.8 1.2 13.142.079.8.3 1.7.4 2.499.178 1.2.3 2.5.5 3.7.167 1.2.3 2.5.5 3.69.663 3.2 1.4 6.5 2.1 9.713.177.8.5 1.6.6 2.4.658 4.3 1.1 8.7 2 13.001.676 3.5 1.7 6.9 2.7 10.343 1.073 3.6 1.9 9.6 4.1 12.7.206.3.3.7.4 1.027 1.127 3.3 2.2 6.7 3.4 9.977.503 1.5 1 2.7 2.9 3.2 2.052.6 3.5.8 5.022-1.239 1.287-1.753 2.625-3.267 1.712-5.639-.292-.761-.303-1.667-.307-2.509-.013-3.434-.009-9.149-.017-12.583-.004-1.487-.237-2.979-.145-4.458.312-4.981.904-9.957 1.049-14.939.126-4.34-.192-8.687-.359-13.028-.041-1.05-.234-2.094-.387-3.135-.128-.887-.406-1.762-.435-2.651-.115-3.49-.162-6.983-.225-10.476-.038-2.164-.283-4.35-.03-6.485.381-3.22 1.292-6.389 1.663-9.608.477-4.124.646-8.276.935-12.417.04-.564-.038-1.136.009-1.698.227-2.692.659-5.383.68-8.071.033-4.062-.234-8.121-.339-12.183-.077-2.966.292-6.001-.224-8.885-.866-4.842-.115-6.839-.189-11.734-.042-2.693-2.612-4.282-5.146-3.153-1.184.527-2.228 3.576-1.997 4.997.491 3.021-.282 3.2.1 6.3.251 2.2.4 4.4.6 6.625.091.9.4 1.8.3 2.662-.181 4.456-1.108 9.01-.467 13.3.575 3.877-.274 7.546-.289 11.3-.019 4.72-.519 9.493-1.351 14.158-1.334 7.475-1.873 14.949-1.503 22.5.203 4.1.5 8.2.8 12.362.04.77-.324 1.562-.297 2.333.086 2.5.3 4.9.4 7.4.034 1.583-.224 3.175-.241 4.762-.038 3.3 0 6.638-.015 9.957-.004.469-.235.939-.423 1.6-.771-1.379-1.61-2.396-1.949-3.562-1.252-4.321-2.533-8.653-3.455-13.058-.74-3.535-.887-7.194-1.446-10.775-.453-2.896-1.158-5.752-1.688-8.637-.203-1.107-.132-2.266-.347-3.369-.261-1.336-.824-2.619-1.029-3.961-.696-4.576-1.388-9.158-1.915-13.759-.509-4.447-.859-8.915-1.185-13.381-.199-2.736.145-5.533-1.154-8.117-.404-.803-.985-1.589-1.124-2.438-.441-2.696-.629-5.432-1.077-8.128-.544-3.274-1.01-6.59-1.952-9.769-1.571-5.307-4.223-14.016-4.667-19.662-.062-.787-.916-1.946-1.668-2.183-3.725-1.167-6.774-.442-7.408 3.9-.142.971-.043 2 0 2.971.125 1.6.5 3.3.5 4.875-.214 4.561-1.67 12.738-1.226 17.4.348 3.65-.086 7.371-.238 11.059-.122 2.947-.477 5.89-.477 8.836.001 2.3.5 4.5.6 6.8.044 3.12-.221 6.242-.25 9.364-.042 4.512-.018 9 0 13.538.026 2.5.2 4.9.2 7.4-.012 5.095-.078 10.189-.192 15.283-.038 1.682-.223 3.368-.478 5.031-.253 1.66-.908 3.283-.972 4.9-.092 2.4.2 4.8.3 7.254.075 1.4.5.9.1 2.087-.664 2.44-.36 4.818-.172 7.2.027.4.1.8.3 1.056 1.124 2 1.2 4.1 1.1 6.257-.134 3.086-.498 3.9.6 6.9.567 1.6 2 1.8 3.3 1.979.575.1 1.329-.583 1.863-1.065 1.018-.917 1.216-2.15 1.138-3.503-.162-2.776-.257-3.235-.379-6.014-.049-1.11-.109-2.221-.209-3.327-.217-2.406-.565-4.805-.672-7.216-.119-2.699.278-3.491-.033-6.161-.488-4.195.266-8.243.704-12.361.441-4.151.477-8.354.56-12.535.055-2.772-.207-5.55-.171-8.323.042-3.216.312-6.429.378-9.646.047-2.31-.104-4.621-.122-6.933-.026-3.455.068-6.912-.043-10.362-.097-3.012-.679-6.026-.566-9.022.219-5.844.798-11.675 1.189-17.514.094-1.406.014-2.822.014-4.233.297.117.5.117.7.152zm-122.565 164.765c-.523-1.5-1.291-2.963-1.582-4.491-.555-2.926-1.774-5.687-3.546-7.885-2.97-3.687-6.189-7.276-10.337-9.753-1.856-1.107-3.58-2.621-5.542-3.351-2.586-.96-5.273-1.829-8.073-.898-1.642.546-3.93 2.408-3.897 4.2.043 2.4.2 4.8.4 7.221.26 2.8.6 5.6 1 8.326.093.7.4 1.3.6 2 .291.9.8 1.8.8 2.742.173 2.7.1 5.3 1.4 7.852.627 1.2 1.4 2.4 1.7 3.7.397 1.7.5 3.4.6 5.127l.1 7.271c.044 1 .5 2.1.5 3.1.076 1.9.1 3.752-.058 5.602-.093 1.2.2 2.4.4 3.611.226 1.4.2 2.7.4 4.1.211 1.4.7 2.9.8 4.316.103 2.535-.223 5.061-.02 7.59.156 1.9.9 3.9 1.3 5.8.231 1.2.3 2.3.4 3.506.393 3.1.8 6.1 1.2 9.18.49 4 .8 7.9 1.5 11.9.432 2.7 1.4 5.4 1.8 8.121.386 2.7.3 5.4.5 8.041.066 1.3.1 2.5.2 3.8.151 2.2.3 4.4.5 6.605.189 2.5.4 4.9.6 7.402.014.191-.116.375-.132.6-.054.658-.285 1.385-.09 1.973.642 1.9 3.8 4 5.5 3.504.945-.264 1.794-.855 2.685-1.301 1.552-.779 3.205-1.164 4.955-1.273 1.155-.072 2.456-.055 3.384-.631 1.331-.826 2.391-2.148 3.555-3.277.564-.547.997-1.404 1.662-1.656 3.183-1.213 4.326-4.625 6.083-7.201 1.348-1.977 2.502-4.449 2.847-7.23.358-2.889 1.253-5.664 1.587-8.557.219-1.9-.03-3.93-.28-5.883-.438-3.422-.867-6.863-1.622-10.234-.921-4.113-2.099-8.184-3.332-12.227-.606-1.984-1.487-3.91-2.396-5.787-.769-1.588-1.788-3.049-2.644-4.598-.819-1.482-1.401-3.139-2.386-4.486-2.659-3.639-6.338-6.109-9.653-9.02l-.13-.086c-1.759-1.029-2.127-2.436-.675-3.711 3.269-2.869 4.451-7.16 6.317-10.949 1.139-2.311 1.408-5.156 1.97-7.793.402-1.891.809-3.812.89-5.758.068-1.623-.339-3.303-.606-5.537-.205-.817-.603-2.217-1.103-3.63zm-9.233 46.712c.223.1.5.2.7.387 2.589 2.7 5.5 5.2 7.2 8.689.906 1.8 1.8 3.5 2.9 5.2 1.891 3.1 2.8 6.5 3.5 9.924.28 1.4.8 2.7 1 4.021.442 2 .9 4 1.2 6.1.449 2.8.8 5.6 1.2 8.391.049.373-.094.766-.164 1.145-.371 1.996-.548 4.082-1.176 6-.547 1.635-1.603 3.037-2.433 4.537-.112.203-.339.393-.338.602.007 2.52-2.131 3.041-3.313 4.4-.442.525-.859 1.078-1.307 1.598-1.92 2.234-4.454 3.17-7.212 3.529-.289.037-.984-.775-1.064-1.244-.344-1.992-.534-4.004-.766-6.01-.184-1.584-.383-3.168-.51-4.754-.225-2.803-.309-5.611-.625-8.408-.248-2.188-.76-4.363-1.152-6.545-.788-4.389-1.736-8.766-2.329-13.168-.658-4.887-.935-9.799-1.491-14.695-.261-2.297-.782-4.582-1.191-6.873-.158-.883-.33-1.766-.499-2.662 2.636-1.376 5.234-1.776 7.834-.164zm-8.934-14.99c-.301-2.695-.552-5.393-.809-8.088-.152-1.596-.316-3.191-.409-4.787-.16-2.756-.064-5.525-.465-8.26-.308-2.102-1.003-4.25-1.915-6.211-.984-2.117-1.15-4.268-1.521-6.439-.584-3.42-1.278-6.828-1.877-10.248-.298-1.703-.479-3.419-.714-5.129l.433-.43c2.385 1.3 4.9 2.3 7.1 3.9 2.553 1.9 5.3 3.7 7 6.672.666 1.2 1.2 2.5 1.7 3.812.952 2.4 1.8 4.9 2.8 7.4 1.227 2.9.8 5.6.4 8.439-.133.977-.353 1.941-.398 2.928-.143 3.07-1.362 5.635-2.795 8.1-1.666 2.904-3.169 5.916-4.872 8.781-.555.934-1.552 1.555-2.346 2.316l-.688-.217c-.28-.861-.526-1.661-.626-2.539zm96.368 84.252c.373-.489.967-.91 1.086-1.471.331-1.553.472-3.16.674-4.748.071-.557.933-4.227 1.052-4.766.333-1.514.756-3 1.081-4.514.44-2.045.727-4.139 1.255-6.152.809-3.09 1.893-6.094 2.632-9.205.514-2.162.395-2.277 2.538-2.334.834-.02 1.674-.057 2.5.025 3.487.3 7 1.2 10.5.584 1.999-.352 4.1.2 6.042-.855 1.014-.543 1.9.2 2 1.375.261 5.4.6 10.7.7 16.109.079 4.363-.223 8.729-.22 13.1 0 1.441-.559 3.4 1.2 4.111 1.153.5 2.5.7 3.7.709 1.284 0 2.915-2.6 2.819-4.049-.116-1.766-.501-3.629-.142-5.281.405-1.859-.01-3.637.134-5.451.225-2.84-.193-5.744-.345-8.621-.126-2.395-.318-4.785-.381-7.18-.118-4.512-.102-9.025-.254-13.535-.179-5.328-.461-10.652-.735-15.977-.117-2.271-.245-4.547-.504-6.805-.388-3.381-.976-6.738-1.336-10.121-.271-2.549-.192-5.139-.489-7.682-.378-3.234-.997-6.438-1.485-9.66-.409-2.697-.772-5.402-1.166-8.104-.553-3.803-1.246-7.59-1.646-11.41-.497-4.74-.743-9.506-1.124-14.259-.125-1.568-.251-3.144-.505-4.694-.31-1.889-.656-3.784-1.168-5.625-.641-2.303-.192-5.165-3.073-6.454-.598.263-1.267.636-1.982.858-2.335.723-3.652 2.36-4.088 4.8-.376 2.061-.638 4.145-.97 6.215-.39 2.432-.893 4.847-1.168 7.292-.212 1.89-.108 3.818-.229 5.7-.065 1.02-.087 2.145-.513 3.016-1.848 3.775-2.757 7.801-3.31 11.98-.247 1.865-.898 3.666-1.409 5.5-.435 1.549-.97 3.064-1.388 4.617-.515 1.914-.956 3.854-1.425 5.781-.609 2.502-2.211 4.822-1.62 7.5.696 3.2.3 6.279-.305 9.318-.699 3.6.2 7.34-1.013 10.873-1.087 3.049-1.884 6.221-2.784 9.3-.224.775-.77 1.816-.494 2.32.786 1.4.3 2.762-.004 3.973-.925 3.664-1.607 7.381-1.571 11.2.027 2.969-.795 5.615-1.625 8.291-.4 1.291-1.271 2.406-1.615 3.709-.483 1.832-.658 3.77-.995 5.7-.57 3.182-2.003 9.455-2.635 12.617-.271 1.4.2 2.3 1.2 2.834 1.127.6 2.3 1 3.3 1.4.506-.828.933-1.328 1.333-1.854zm23.679-112.383c-.489 3.3.5 6.3 1.1 9.4.393 1.9.7 3.9.9 5.785.386 2.5.7 5.1 1.1 7.619.547 3.4 1.3 6.7 1.7 10.1.3 2.5.1 5.1.3 7.588l.8 7.867c.115 1.1.2 2.2.3 3.3.129 1.5.3 3 .4 4.561.099 1.5.1 2.9.2 4.357.099 1.6.2 3.1.4 4.7.327 2.482-.474 3.451-2.8 3.688-1.886.193-3.726.836-5.61 1.031-3.581.375-7.173.678-10.769.8-1.804.062-2.269-.564-2.125-2.527.219-2.992.424-6.012.995-8.934.466-2.383 1.568-4.604 2.181-6.961.385-1.484.384-3.088.555-4.639.197-1.795.473-3.586.571-5.391.187-3.432.422-6.871.358-10.307-.057-3.066.913-5.768 1.849-8.539 1.042-3.084 2.065-6.188 2.919-9.34.524-1.932.594-3.998 1.062-5.951.795-3.318 1.747-6.596 2.64-9.889.184 0 .4.1.6.076.151.515.425 1.115.325 1.606zm113.727-144.328c-.368-2.902-.679-5.816-1.19-8.69-.374-2.099-.791-7.418-1.636-9.35-.978-2.237-2.383-4.303-3.738-6.363-1.201-1.827-2.536-3.578-3.895-5.306-2.076-2.639-4.013-4.175-6.437-6.51-2.28-2.196-4.825-4.228-7.978-5.457-2.544-.992-4.439-3.071-7.135-3.903-1.191-.368-2.272-1.049-3.473-1.384-3.144-.874-6.115 1.036-6.17 4.1-.035 1.9.3 3.9.7 5.841.737 3.518-.687 6.1 1.6 9.374l.1.1c-.036 3.21-.069 6.42-.111 9.63-.031 2.377-.195 7.9 0 10.298.358 4.3 1 8.5 1.5 12.8.039.352-.08.731-.161 1.092-.245 1.093-.713 2.186-.724 3.273-.033 3.1.2 6.2.2 9.3-.028 3.368-.179 6.739-.366 10.106-.121 2.157-.521 4.309-.588 6.464-.101 3.2.2 6.507-.06 9.7-.28 4.2.3 8.381-.432 12.633-.706 4.328-.377 13.819-.471 18.211-.111 5.2.8 10.4.2 15.7-.246 2.1 1.3 3.7 3.2 3.907 3.361.4 5.7.2 8.045-2.234 1.871-1.962 4.743-2.457 6.896-4.058 2.852-2.12 5.915-3.965 7.919-6.679 2.336-3.163 3.986-11.735 5.932-15.182 1.231-2.182 1.685-7.224 1.847-9.832.139-2.234.636-4.461.946-6.693.621-4.465.814-8.297 1.519-12.752.398-2.519 1.006-5.019 1.607-7.51.653-2.707 1.556-5.375 2.074-8.098.434-2.282-.726-6.47-.472-8.781.367-3.354.793-6.705 1.236-10.389-.232-.821-.36-2.121-.46-3.358zm-33.078 82.273c-.167-3.044-.458-11.15-.518-14.204-.032-1.629-.165-3.265-.039-4.887.243-3.138.515-6.283 1.004-9.397.583-3.713.428-7.341-.002-11.027-.274-2.349.14-4.798.264-7.201l.216-.758c.208-2.918.388-5.837.605-8.754.066-.888.314-1.772.321-2.654.01-1.437-.215-2.871-.156-4.304.139-3.311.569-6.627.543-9.928-.025-3.19-.443-6.37-.757-9.547-.138-1.395-.425-2.771-.672-4.151-.241-1.344-.681-2.669-.744-4.022-.093-2.033.02-7.253.053-9.296.058-3.494.225-6.997.095-10.48-.099-2.656-.588-4.021-.959-7.109 2.806.5 5.1.8 7 2.121 4.522 3.4 8.3 6.2 11.3 10.792 2.119 3.2 4 6.6 5.5 10.2 1.066 2.6 1.4 8.6 1.8 11.41.384 2.3.8 4.7.7 6.99-.167 3.34-.816 6.678-1.242 10-.074.579-.179 1.181-.099 1.742.493 3.4.5 8.507-.452 11.776-.63 2.214-1.267 4.451-1.581 6.7-.692 4.977-.696 9.346-1.471 14.31-.38 2.438-1.684 4.769-2.077 7.206-.626 3.879-2.084 14.781-3.7 18.2-.716 1.505-3.279 1.767-4.261 3.167-2.35 3.353-6.081 4.905-10.145 6.886-.256-.917-.524-2.917-.524-3.781zm-178.468-51.228c.874 4 1.8 7.6 2.1 11.574.379 2.8.4 3.3 1.1 6.406.609 2.6 1.3 5.8 2.2 8.2 1.454 3.8 2.7 7.6 4.2 11.442 1.843 4.9 3.8 9.8 5.6 14.649.521 1.4 1 2.8 1.5 4.2.677 1.8 2.2 2.6 3 4.391.459 1 3.1 2.2 4 1.855.857-.33 2.149-3.34 1.851-4.333-1.031-3.442-2.945-5.924-4.042-9.352-.446-1.398-1.17-2.721-1.605-4.122-.555-1.787-1.364-3.405-2.4-4.995-1.633-2.503-.953-5.772-2.897-8.229l-.074-.14c-.303-1.188-.595-2.38-.908-3.566-.618-2.341-1.162-4.703-1.907-7.011-.618-1.915-.033-4.122-1.052-5.859-.703-1.196-.952-2.242-.821-3.508.157-1.511-.879-2.794-1.003-4.31-.468-5.702-2.116-11.226-3.703-16.763-.496-1.73-.784-3.345.475-5.151 1.414-2.028 2.057-4.636 2.798-7.071.722-2.372 1.006-4.889 1.726-7.264.903-2.98 2.216-5.838 2.021-9.093-.249-4.166.886-8.261-.969-12.52-2.065-4.74-4.802-8.938-8.917-12.251-1.635-1.317-3.889-1.9-5.717-3.043-2.261-1.413-4.525-1.136-6.801-.729-2.101.377-3.614 2.571-3.252 4.508.321 1.7.7 3.4 1 5.1.36 2.1.7 4.3.9 6.449.246 2.7.3 5.3.5 8.018.105 1.5.4 2.9.5 4.4.208 5.3.2 10.6.6 15.866.287 4 1.1 8 1.6 11.992.165 1.519-.185 3.053-.163 4.6.052 3.6 0 7.1.3 10.687.293 3.218-.03 6.31-.346 9.453-.313 3.116-.216 6.304-.194 9.5.036 5.1.1 10.2.3 15.309.085 1.8.8 3.6 1.2 5.479.775 4.3 1.4 8.7 2.2 13 .346 1.9 1.8 3.1 3.2 3.023 1.371-.042 3.15-1.927 3.073-3.461-.111-2.225.032-4.396-.64-6.691-.867-2.959-1.046-6.095-1.404-9.161-.274-2.349-.332-4.71-.55-7.063-.158-1.71-.564-3.423-.606-5.124-.097-3.909-.087-7.815-.021-11.717.042-2.462.198-4.919.423-7.361.117-1.272 1.013-2.65.646-3.726-.729-2.131.037-4.106-.304-6.149-.083-.498.207-1.036.399-1.875.466.829.754 1.129.854 1.537zm-3.448-25.775c-.375-2.683-.881-5.364-1.084-8.05-.151-2.016.206-4.036.115-6.058-.068-1.545-.481-3.095-.75-4.642-.149-.862-.534-1.761-.432-2.579.337-2.714.279-5.39-.515-8.098-.216-.737-.12-1.542-.178-2.494 2.258.1 4 1.1 5.5 2.83.71.8 1.4 1.7 2.2 2.389 2.351 2.2 3.1 4.9 3.2 7.7.01 3.361-.155 6.75-.685 10.039-.54 3.353-1.624 6.594-2.442 9.89-.363 1.463-.535 2.996-1.053 4.4-.405 1.093-.87 2.405-2.788 2.323-.387-2.583-.77-5.083-1.07-7.65zm230.51 248.067c-.387 0-.78-.064-1.159.01-1.395.273-2.48 1.06-2.966 2.607-.454 1.447-.674 3 .3 4.1 2.158 2.8 5 3.9 8.4 3.823 1.793-.016 3.5.7 5.386-.053.938-.398 2.008-.902 2.906-.767 1.541.2 2.842-.573 3.992-1.319 2.855-1.852 5.741-3.715 8.08-6.512 1.086-1.301 2.232-2.24 2.938-4.098 1.874-4.924 4.096-9.695 5.354-14.865 1.166-4.789 1.626-9.508 1.011-14.252-.125-.951.058-2.031-.256-2.871-1.25-3.348-.817-7.051-1.236-10.568-.147-1.232.096-2.469-.227-3.789-.766-3.125-1.054-6.422-1.529-9.654-.155-1.059-.114-2.195-.429-3.182-1.374-4.295-2.848-8.551-4.322-12.812-.263-.76-.616-1.48-.931-2.217-1.18-2.762-2.398-5.506-3.551-8.287-.774-1.867-1.091-4.105-2.266-5.602-1.792-2.283-3.117-4.699-3.668-7.625-.544-2.887-1.226-5.761-1.47-8.701-.22-2.647.11-5.381.129-8.072.007-.93-.465-1.902-.25-2.76.772-3.076 1.07-6.225 3-9.086 1.709-2.534 3.576-4.535 6.318-5.777 1.348-.611 2.62-1.491 3.837-2.388 1.96-1.444 6.097-1.907 7.889-.808 1.416.9 2.8 1.7 4.3 2.5 2.162 1.1 5.047-.616 5.551-3.231.21-1.092.242-2.137-.712-2.845-.701-.519-1.372-1.075-2.1-1.553-1.185-.778-2.305-1.922-3.639-2.164-2.303-.419-4.746-.306-7.137-.329-.884-.009-1.872.021-2.665.399-2.469 1.173-4.937 2.267-7.278 3.8-2.644 1.76-5.031 3.651-7.254 5.937-3.421 3.519-5.09 7.914-6.518 12.292-1.028 3.152-1.299 6.631-1.331 9.9-.035 3.5.6 7 1 10.432.159 1.4.9 2.6.8 3.975-.161 2.9 1.3 5 2.4 7.3.941 2 2 3.9 2.7 5.928.911 2.4 1.4 5 2.4 7.334 1.649 3.5 3 7.1 3.9 10.9.872 3.4 2.1 6.7 2.9 10.162.624 2.6 1 5.4 1.3 8.107.575 5.1 1 10.1 1.5 15.2.319 3 1.2 5.8.3 8.953-.474 1.635-1.041 3.25-1.415 4.902-.358 1.57-.521 3.178-.773 4.8-.396 2.504-1.935 4.438-3.107 6.549-.562 1.01-.983 2.191-1.741 2.973-1.24 1.281-2.61 2.496-4.081 3.4-3.296 2.004-6.679 2.875-10.15 1.197-1.378-.666-2.852-1.123-4.285-1.676-.083.183-.137.283-.137.37zm-203.25-139.217c-1.539.751-3.21 3.098-2.976 4.533.333 2 .8 4.1 1.2 6.11.429 2.2 1 4.5 1.2 6.7.376 3.7.5 7.5.8 11.211.16 2.4.6 4.8.4 7.184-.333 4.4.5 8.7.9 13 .225 2.9.2 5.8.3 8.766.072 1.8.2 3.7.3 5.488.069 1.3.1 2.6.2 3.9.081.9 0 2 .4 2.793 1.737 3.3 1.7 7 2.2 10.521.408 2.9.2 5.8.3 8.8.074 3.1.1 6.2.2 9.361.043 1.3.2 2.7.3 4 .085 1.7.1 3.4.2 5 .064 2.5.1 5.1.2 7.641.081 1.7.4 3.3.5 4.969.324 3.8.6 7.6.9 11.4.136 1.6.4 3.2.5 4.846.026 2.369-.137 4.729-.199 7.096l.3.4c1.165 1.6 2.5 2.8 4.4 2.725.898-.029 1.779-.297 2.677-.35 3.733-.223 7.478-.334 11.205-.625 2.094-.162 3.84-1.02 4.753-3.373.942-2.43.506-3.861-1.796-4.9-2.697-1.219-5.31-.777-7.954 0-1.384.42-2.891.418-4.346.572-.152.016-.408-.16-.49-.32-.464-.895-1.098-1.771-1.287-2.727-.385-1.938-.572-3.92-.748-5.889-.228-2.564-.331-5.133-.548-7.695-.3-3.521-.806-7.039-.957-10.559-.219-5.15-.187-10.301-.281-15.453-.044-2.432-.025-4.867-.229-7.293-.426-5.055-1.012-10.104-1.442-15.158-.037-.424.566-1.201.969-1.26 1.054-.158 2.169-.109 3.2.041 2.082.3 3.933-.127 5.529-1.492 1.592-1.357 1.692-3.721.083-5.166-.784-.705-1.811-1.316-2.792-1.516-1.623-.33-3.298-.316-4.952-.402-1.033-.055-2.338.377-3.016-.152-.589-.461-.574-1.967-.638-3.014-.139-2.242-.136-4.486-.229-6.73-.074-1.822-.104-3.654-.329-5.467-.374-3-1.215-6-1.272-8.982-.094-4.869.171-9.721-.725-14.585-.344-1.866-.652-3.738-.921-5.613-.452-3.136-.74-6.293-1.321-9.407-.53-2.84-.534-3.151 2.344-3.192 2.461-.035 4.9.3 7.4.455 2.221.1 4.6.3 6.082-1.643.733-.944 1.292-2.24 1.366-3.437.037-.597-1.13-1.77-1.873-1.92-3.347-.678-6.74-1.083-9.835-1.544-3.518 1.069-6.994.869-10.194 2.352zm107.308 142.419c-.668 1.691-.012 3.6 1.6 4.118.994.3 2.1.7 3.1.536 1.577-.324 2.9.2 4.3.7 4.671 1.6 8.222-1.121 11.771-3.928.149-.117.243-.332.343-.516 1.236-2.271 2.434-4.574 3.731-6.809.839-1.443 1.977-2.703 2.71-4.201 1.508-3.08 2.91-6.232 4.219-9.426.545-1.33.855-2.82 1.024-4.264.305-2.611.497-5.244.599-7.869.089-2.295.261-4.654-.096-6.877-.491-3.057-1.475-6.004-2.205-9.016-.427-1.764-.756-3.559-1.14-5.34-.371-1.717-.747-3.435-1.133-5.146-.297-1.318-.448-2.715-.951-3.936-1.835-4.455-4.22-8.701-5.606-13.316-1.033-3.438-2.339-6.678-4.06-9.668-1.575-2.736-2.465-5.602-3.125-8.662-.424-1.965-.787-4.051-1.707-5.766-1.939-3.617-3.722-7.133-3.28-11.553.41-4.109.178-8.292.762-12.367.356-2.492 1.54-4.938 2.693-7.227.847-1.682 1.708-3.553 3.626-4.394 1.113-.487 2.366-.771 3.324-1.484 3.362-2.501 5.276-2.614 8.665-.435 1.053.7 1.9.5 2.848-.021.944-.53 1.661-1.267 1.628-2.53-.067-2.585-.659-3.734-3.784-5.037-3.885-1.619-7.723-1.195-11.484 1.08-2.746 1.661-5.524 3.219-8.2 5-2.141 1.43-2.983 3.485-3.795 5.466-1.419 3.463-2.562 7.116-3.21 10.798-.411 2.333-.479 4.784-.733 7.2-.305 2.9.1 5.8.3 8.746.152 1.8.1 3.8 1 5.172 2.477 3.8 3.4 8.2 4.7 12.5.581 1.9 1.2 3.8 1.9 5.674 1.512 3.6 3.2 7.1 4.7 10.689.766 1.9 1.1 3.9 1.9 5.8 1.252 3 2.8 5.9 4 9.029.995 2.7 1.7 5.5 2.4 8.27.738 3 1.5 6 2 9 .553 3.2 1.1 6.5.4 9.844-.109.52-.276 1.078-.201 1.574.537 3.527-.614 6.807-1.952 9.8-1.793 4.02-3.981 7.881-6.357 11.516-1.312 2.008-2.74 4.426-5.319 4.762-1.677.219-3.407.121-5.09-.066-1.738-.195-3.448-.67-5.375-1.062-.568 1.34-.99 2.54-1.39 3.642zm58.831-141.302c-1.075 0-2.161-.123-3.222.026-1.775.248-3.239 1.182-3.651 3.78-.27 1.7.5 3 2.4 3.6 1.252.4 2.6.5 3.9.588 2.263.1 4.6.4 6.8.115 2.901-.32 3.6 0 3.8 2.9.017.3.1.5.1.776.128 2.2.4 4.3.3 6.482-.062 3.21-.375 6.425-.502 9.6-.115 2.914-.016 5.83-.204 8.74-.28 4.354-.729 8.699-1.101 13.049-.352 4.104-.743 8.207-1.034 12.3-.255 3.602-.638 7.225-.533 10.803.146 5 1 9.9 1 14.896-.017 4.641-.773 9.316-1.169 14-.116 1.367-.122 2.738-.171 4.105-.039 1.041-.007 2.088-.114 3.123-.383 3.705-.833 7.404-1.207 11.1-.188 1.861-.245 3.732-.41 5.596-.22 2.494-.596 4.986-.706 7.479-.124 2.803-.051 5.609-.014 8.4.014 1.084-.138 2.4.3 3.187.63 1.1 1.7 2.4 2.7 2.49 1.851.1 3.544-.957 3.735-3.202.198-2.327.51-4.654.66-6.984.135-2.104.139-4.211.157-6.314.013-1.42-.179-2.844-.057-4.256.455-5.248 1.06-10.488 1.501-15.736.259-3.072.212-6.158.493-9.229.143-1.576.991-3.145 1.017-4.697.083-5.018.035-10.035-.162-15.033-.216-5.5-.941-10.938-.251-16.525.794-6.439 1.299-12.902 1.96-19.354.323-3.158.821-6.312 1.04-9.473.348-5.006.548-10.014.758-15.02.042-.99-.225-1.977-.227-2.969-.005-3.013.104-6.036.056-9.047-.035-2.196-.114-2.196 2.054-2.581 1.835-.325 3.725-.069 5.521-.921.785-.372 1.774-.915 2.468-.725 2.994.8 4.901-.861 6.708-2.976 1.001-1.173.628-2.091-.34-2.964-3.453-3.115-7.77-2.838-12.078-2.542-2.221.152-4.363.7-6.355 1.86-.221.129-.585-.057-.877-.018-1.397.188-2.799.346-4.183.626-1.04.211-2.053.807-3.078.855-2.607.126-5.218.042-7.826 0l.063.075zm-146.454-30.557c-1.463.078-3.034-.124-4.358.3-1.509.519-2.856 1.547-4.166 2.496-2.093 1.518-1.999 4.5.3 5.964.952.6 2.3.9 3.4.8 2.817-.086 5.617-.451 8.43-.656.8-.06 1.7.2 2.4.037 2.938-.714 5.846-1.551 8.771-2.339 1.419-.382 2.36-1.414 2.901-2.652.497-1.133.993-2.64-.488-3.499-1.175-.682-2.559-1.036-3.886-1.382-1.017-.266-1.641-.643-1.973-1.77-1.094-3.713-2.655-9.495-3.819-13.193-.204-.649-.254-1.352-.305-2.032-.224-2.924-.357-5.853-.657-8.771-.156-1.514-.973-3.06-.827-4.503.381-3.786-.044-7.46-.903-11.176-.648-2.808-1.263-5.662-1.45-8.508-.277-4.246-.165-8.504-.212-12.757-.014-1.271.022-2.542-.023-3.812-.104-2.938-.225-5.877-.379-8.814-.12-2.303-.283-4.605-.457-6.907-.142-1.868-.407-3.735-.476-5.604-.103-2.796-.09-5.594-.101-8.389-.001-.416.153-.826.199-1.243.093-.826.285-1.662.217-2.484-.213-2.579-.506-5.155-.813-7.729-.29-2.424-.6-4.848-.978-7.264-.228-1.457.217-1.971 1.766-2.225 2.473-.405 5.097-.553 6.782-2.694 2.306-2.932 2.19-4.948-.288-5.984-1.218-.51-2.843-.318-4.237-.158-2.331.267-4.604.909-6.937 1.117-1.992.178-3.905-.23-5.487 1.629-1.043 1.228-3.077 1.692-4.682 2.5-1.811.877-2.692 3.143-1.833 4.772 1.117 2.1 3.4 3.2 5.4 2.352 1.309-.55 2.175-.087 2.5 1 .458 1.8.8 3.6.9 5.341.153 1.887-.026 3.8.1 5.675.162 3.1.7 6.2.6 9.3-.113 4.067-.646 8.1.2 12.192 1.357 6.7 1.6 13.3 1.3 20.036-.125 2.845-.598 5.689-.433 8.5.237 4.1.9 8.2 1.4 12.233.117.9.9 1.7.9 2.522.498 5.1.8 10.3 1.3 15.4.44 4.3 1.2 8.5 1.6 12.787.228 2.4 1.1 7.089-.035 9.5l-1.19.092zm44.03-122.414c2.278-.164 4.012-1.092 5.474-2.655.793-.849.558-3.737-.377-4.116-2.912-1.178-5.924-1.103-8.997-.883-2.165.154-3.856 1.845-6.407 1.204-.442-.111-1.905-.613-2.341-.51-1.857.438-3.633 1.229-3.795 3.3-.192 2.393-.52 4.9.1 7.197.71 2.5 1.2 4.8 1.1 7.318-.044.893-.332 2 .1 2.7 1.538 2.6 1.2 5.6 1.2 8.24.099 5.4.5 10.7 1.4 15.955.564 3.2 1.1 6.3.7 9.6-.426 3.236-.952 6.531-.722 9.768.207 2.9.3 5.745-.042 8.622-.159 1.4.1 2.9 0 4.4-.216 3.979-.534 7.95-.751 11.929-.109 2 0 4.019-.157 6.003-.468 4.8-1.246 9.569-1.541 14.4-.215 3.5.1 7.1.2 10.592.035 1.3.1 2.5.1 3.809.165 2.8.4 5.7.5 8.5.127 2 .2 4.2 2.3 5.225 1.426.7 3.1 1.3 4.6 1.318 3.497 0 6.988-.339 10.485-.546 1.366-.081 4.528-2.877 4.769-4.243.042-.241-.035-.508-.076-.76-.318-1.956-1.808-2.507-3.417-2.723-2.604-.349-5.235-.781-7.839-.722-1.153.026-1.906-.17-2.298-1.041-.439-.978-.63-2.098-.758-3.173-.407-3.42-.822-6.842-1.072-10.272-.241-3.299-.456-6.619-.355-9.913.103-3.298.351-6.634 1.017-9.847.736-3.55.728-7.119.897-10.694.215-4.54.293-9.092.614-13.624.152-2.146 1.148-2.847 3.34-2.862 2.161-.015 3.987-.92 5.218-2.453.637-.793.803-2.415.427-3.396-.412-1.073-1.554-2.31-2.634-2.633-1.848-.553-3.895-.449-5.879-.623-.048-2.756-.088-5.532-.147-8.309-.029-1.348.032-2.711-.16-4.042-.728-5.045-1.609-10.073-2.302-15.123-.185-1.348.309-2.765.16-4.121-.395-3.59-.966-7.164-1.482-10.743-.332-2.299.358-4.758-1.412-6.765 3.388-.517 7.203-3.117 10.303-3.288zm184.01 47.671c-.309-.913-.742-1.799-.903-2.745-.414-2.435-.7-4.905-1.063-7.354-.468-3.155-.838-6.34-1.488-9.451-.517-2.47-1.603-4.801-2.053-7.281-.555-3.066-.616-6.245-1.084-9.337-.25-1.649-1.801-3.011-4.227-2.756-1.156.122-2.869 1.991-2.846 3.3.039 2.2.1 4.5.4 6.64.364 2.5 1.1 4.9 1.6 7.3.77 3.6 1.6 7.1 2.2 10.673.549 2.9.8 5.9 1.4 8.835.621 3.2 1 6.6 2.3 9.5 1.477 3.3 2.2 6.6 1.8 10.318-.197 2.125-.395 4.261-.379 6.374.013 1.8.4 3.5.5 5.3.077 2.846-.015 5.709-.018 8.563-.004 2.7.2 5.49-.017 8.236s-.832 5.495-1.083 8.2c-.29 3.155-.21 6.32-.581 9.468-.432 3.668-1.242 7.321-1.748 10.988-.188 1.4.1 2.7 0 4.1-.105 3.019-.058 3.1 2.6 4.102 1.52.6 3.86-.25 4.46-1.822.565-1.481.829-3.109.951-4.673.124-1.608-.269-3.222-.105-4.825.343-3.354.97-6.703 1.357-10.057.328-2.837.468-5.682.711-8.522.333-3.874.746-7.749 1.006-11.621.127-1.891.018-3.785-.037-5.669-.065-2.24-.286-4.47-.255-6.716.031-2.304.359-4.625.419-6.932.044-1.678-.217-3.34-.181-5.018.02-.865.369-1.754.611-2.623.361-1.294.803-2.572 1.142-3.869.793-3.044 1.479-6.108 2.344-9.138.615-2.158 1.515-4.26 2.161-6.414.55-1.844.948-3.723 1.36-5.593.651-2.935 1.293-5.871 1.873-8.814.586-2.972.556-6.009 2.062-8.882.409-.781.361-1.855.24-2.738-.255-1.872-1.197-2.47-3.244-2.315-1.592.12-2.995 1.201-3.595 2.9-.605 1.711-1.133 3.442-1.654 5.174-.303 1.006-.624 2.022-.767 3.044-.325 2.34-.483 4.691-.836 7-.205 1.355-.564 2.718-1.016 4.036-.695 2.026-1.603 3.999-2.275 6.03-.542 1.641-.873 3.332-1.296 5-.227.084-.513.084-.713.131zm-40.295 82.404c1.293-.153 2.586-.31 3.88-.46 1.497-.174 3.671-2.436 3.909-3.923.322-2.015-1.333-3.673-3.303-3.971-1.74-.264-3.544-.265-5.327-.27-2.063-.005-2.847-.728-2.763-2.788.037-.906.127-1.813.155-2.719.158-5.112 2.059-10.105 1.847-15.254-.09-2.197.332-4.453.145-6.629-.284-3.303-1.144-6.535-1.299-9.843-.12-2.534.456-5.141.767-7.712.119-.987.474-1.968.519-2.948.138-3.017.146-6.032.27-9.049.106-2.636.506-5.289.413-7.903-.147-4.099.17-8.131 1.144-12.185.301-1.253.037-2.604.023-3.909-.005-.569-.059-1.137-.044-1.706.062-2.44.158-4.882.206-7.322.029-1.405-.164-2.82.018-4.211.369-2.826 1.646-5.582 1.135-8.479-.227-1.286-.435-2.58-.568-3.883-.231-2.259-.522-4.519-.555-6.794l-.177-2.077c-.002-2.255-1.554-3.269-4.354-3.084-1.574.104-2.651 1.362-2.66 3.191-.002.7.2 1.4.2 2 .153 3.9.6 3.5 1 7.279.397 3.6.2 7.111-.525 10.696-.452 2.34-.979 4.827-.622 7.1.629 3.976-.624 7.909-.307 11.835l-.132.29c-.666 3.605-1.969 7.268-1.827 10.8.206 5.1 1.2 10.2.7 15.381-.124 1.355-.035 2.723-.213 4.071-.743 5.625-1.243 11.252-1.15 16.9.026 1.57-.062 3.2.4 4.668 1.074 3.1.7 6.2.3 9.258-.543 3.733-1.471 7.428-2.173 11.1-.45 2.382-.772 4.781-1.197 7.167-.701 3.9 2.4 6.9 6.1 5.989 1.978-.41 6.093-.81 6.093-.606zm-268.936-6.479c.309.9.5 1.8.9 2.578.629 1.3 2.5 2.1 3.6 1.818 1.003-.283 2.876-2.821 2.769-3.707-.19-1.572-.344-3.146-.528-4.72-.26-2.23-.84-4.5-.736-6.684.202-4.281-.873-8.417-1.719-12.605-.669-3.312-1.282-6.643-1.696-9.975-.325-2.616.22-5.373-.561-7.845-1.134-3.59-.499-6.969-.554-10.427-.011-.658.725-1.678 1.339-1.822 2.457-.573 4.706-2.199 7.55-1.178.262.1.621-.084.925-.165 1.541-.412 2.405-1.417 3.103-2.823.996-2.004.17-3.973-2.114-4.351-.804-.133-1.633-.179-2.408-.424-2.407-.761-4.582-.516-6.6.741-.427.266-1.286.585-1.462.413-.607-.598-1.326-1.389-1.416-2.13-.218-1.812.018-3.639-.164-5.454-.23-2.302-.786-4.596-1.036-6.897-.36-3.307-.011-6.6-1.312-9.919-.812-2.072-.935-4.359-1.303-6.556-.209-1.249.126-2.733-.508-3.718-1.31-2.035-1.184-4.125-1.406-6.207-.097-.901.059-1.923.481-2.678.222-.397 1.274-.309 1.931-.492.959-.269 1.962-.48 2.835-.905 1.375-.67 2.567-1.712 4.011-2.202 1.6-.543 2.85-1.353 3.763-2.646 1.339-1.897.726-4.32-1.266-4.444-2.003-.125-4.075.179-5.983.672-2.483.64-4.764 1.862-7.257 2.438-2.098.483-3.903 1.224-5.392 2.6-1.508 1.41-1.472 3.4 0 5.123.469.5 1.1 1.2 1.1 1.751.276 2.7.8 5.3 1.5 7.9.798 3.3 1.4 6.7 1.3 10.057-.014.3.3.6.3.882.394 1.9 1.1 3.9 1.1 5.8.003 1.893-.941 3.7.4 5.655.269.4.2 1 .2 1.576.187 3.7.2 7.5.6 11.2.613 7.1 1.4 14.3 2 21.447.365 4.172-.473 8.3 1 12.535.808 2.2.9 4.7 1.3 7.1.289 1.8.6 3.7.7 5.537.14 1.951-.009 3.9.2 5.853.205 2.4.6 4.9.9 7.3-.147-.027-.222-.027-.422-.002z"/><path fill="#ECB256" d="M202.347 26.079c-8.462-6.581-20.495-10.542-25.385-11.517-3.526-.704-11.282-4.703-18.569-7.523s-23.975-3.056-33.142-5.641c-9.167-2.586-9.167-1.175-20.449.94-.545.102-1.084.266-1.618.5 13.522 3.1 26.6 4.8 37.3 9.885 11.047 5.2 22.8 18.8 26.6 23.505 3.761 4.7 11.3 9.2 15.3 14.6 8.885 12 7.3 15.5 9.9 19.273 2.585 3.8 8 6.1 9.4 10.107 2.474 7 3.1 17.4 4 18.8.939 1.4 6.1 7.8 8 13.164 1.881 5.4.9 6.6 4.5 10.577 1.948 2.2 4.6 7.4 6.6 11.7.488-.6 1.011-1.196 1.62-1.784 6.817-6.581 10.342-18.099 13.868-34.317s0-21.86-7.521-36.903c-7.604-15.145-21.951-28.745-30.451-35.366zm-23.975 254.791c-2.35-6.816 1.41-5.405-4.701-13.633-6.111-8.228.471-8.462-8.227-19.508-8.697-11.048-6.111-11.989-10.577-17.629-4.466-5.641-9.402-10.108-13.632-13.398-4.231-3.29-10.812-11.753-15.749-12.458s-12.692-9.167-19.744-10.577-6.347-2.115-12.692-5.875c-6.348-3.761-11.283-1.881-12.929-3.292-8.081-6.925-13.632-4.231-16.923-6.346-6.805-4.373-17.395-2.115-23.035 1.2-4.014 2.341-15.879 6.59-25.439 15.365 3.16-1.996 6.021-3.696 7.574-4.317 4.701-1.881 9.637-1.41 12.693-.94 3.057.5 8.227-2.585 16.924-1.411s6.347 2.8 19 4.466c12.693 1.6 9.6 8 24.2 12.7 14.572 4.7 9.4 7.5 25.9 14.574 6.582 2.8 5.6 12.2 14.8 22.329 9.167 10.1 10.6 11.8 16.5 18.8 5.876 7.1 6.1 15.3 10.6 23.27 4.466 8 10.8 14.1 11.8 19.979.016.1 0 .2.1.3 2.869-8.669 4.985-19.369 3.585-23.599zm-55.942 22.8c-2.351-6.111 2.351-10.813.47-15.749-1.881-4.937-5.171-6.583-15.983-14.338-10.812-7.758-9.637-8.697-16.453-15.748-6.816-7.052-6.582-7.992-13.398-13.163-6.816-5.172-7.521-8.227-15.748-9.402-1.339-.191-2.648-.201-3.91-.105 2.416 3.8 8.9 9.8 11.9 17.3 3.055 7.521-3.291 6.8 14.1 20.45 17.394 13.6 15.5 16.9 29.1 27.736 3.024 2.4 5.5 4.6 7.6 6.6 2.028-.651 2.992-1.851 2.292-3.581zm348.438-242.334c-7.521 15.043-11.047 20.685-7.521 36.9s7.051 27.7 13.9 34.317c.608.6 1.1 1.2 1.6 1.784 1.995-4.231 4.659-9.45 6.607-11.658 3.525-3.996 2.585-5.171 4.466-10.577 1.88-5.407 7.052-11.753 7.992-13.164.94-1.41 1.521-11.794 3.996-18.804 1.41-3.996 6.817-6.346 9.402-10.107 2.585-3.76.987-7.251 9.872-19.273 3.996-5.407 11.517-9.873 15.278-14.573 3.761-4.701 15.513-18.333 26.561-23.505 10.79-5.051 23.823-6.743 37.345-9.885-.534-.192-1.073-.355-1.618-.458-11.282-2.115-11.282-3.526-20.449-.94-9.167 2.585-25.854 2.821-33.142 5.641s-15.043 6.819-18.569 7.5c-4.89.976-16.923 4.936-25.385 11.517-8.474 6.649-22.803 20.249-30.303 35.285zm57.997 243.064l.062-.276c.94-5.876 7.286-11.986 11.752-19.979 4.466-7.992 4.701-16.219 10.577-23.27 5.876-7.051 7.287-8.696 16.454-18.804 9.167-10.107 8.227-19.508 14.809-22.329 16.472-7.059 11.282-9.872 25.854-14.574 14.572-4.701 11.518-11.047 24.211-12.692 12.692-1.645 10.342-3.291 19.039-4.466s13.867 1.9 16.9 1.4c3.057-.47 7.992-.941 12.7.94 1.553.6 4.4 2.3 7.6 4.317-9.561-8.774-21.426-13.023-25.439-15.365-5.641-3.291-16.23-5.548-23.035-1.175-3.291 2.115-8.842-.579-16.923 6.346-1.646 1.411-6.581-.469-12.929 3.3-6.346 3.76-5.641 4.465-12.692 5.875s-14.808 9.872-19.744 10.577-11.518 9.168-15.749 12.5c-4.23 3.29-9.166 7.757-13.632 13.398-4.466 5.64-1.88 6.582-10.577 17.629-8.698 11.046-2.116 11.28-8.227 19.5-6.111 8.229-2.352 6.817-4.701 13.633-1.463 4.215.725 14.915 3.725 23.531zm54.489 2.8c2.141-2.017 4.6-4.229 7.624-6.627 13.634-10.813 11.753-14.104 29.146-27.736 17.394-13.631 11.048-12.928 14.103-20.45 3.021-7.438 9.486-13.492 11.902-17.263-1.262-.095-2.571-.086-3.91.105-8.227 1.175-8.932 4.23-15.748 9.4-6.816 5.171-6.582 6.111-13.398 13.163-6.816 7.051-5.641 7.99-16.453 15.748-10.812 7.755-14.103 9.401-15.983 14.3-1.881 4.9 2.8 9.6.5 15.749-.703 1.811.263 3.011 2.263 3.653z"/></svg>